<?xml version="1.0" standalone="no"?>
<!DOCTYPE svg PUBLIC "-//W3C//DTD SVG 1.1//EN" "http://www.w3.org/Graphics/SVG/1.1/DTD/svg11.dtd" >
<svg>
<metadata>
Created by FontForge 20090914 at Sun Jun 19 08:12:31 2022
 By www-data
&#194;&#169; Copyright SoftMaker Software GmbH and its licensors
</metadata>
<defs>
<font id="M650RomanBoldItalic" horiz-adv-x="573" >
  <font-face 
    font-family="M650-Roman"
    font-weight="700"
    font-style="italic"
    font-stretch="normal"
    units-per-em="1000"
    panose-1="0 0 0 0 0 0 0 0 0 0"
    ascent="800"
    descent="-200"
    x-height="589.001"
    cap-height="705.999"
    bbox="-215 -275 1102 925.002"
    underline-thickness="40"
    underline-position="-132"
    slope="-11"
    unicode-range="U+0020-U+2215"
  />
<missing-glyph horiz-adv-x="500" 
d="M31 0v925h438v-925h-438zM438 31v863h-376v-863h376z" />
    <glyph glyph-name=".notdef" horiz-adv-x="500" 
d="M31 0v925h438v-925h-438zM438 31v863h-376v-863h376z" />
    <glyph glyph-name="space" unicode=" " horiz-adv-x="314" 
 />
    <glyph glyph-name="exclam" unicode="!" horiz-adv-x="328" 
d="M103 706h294.999l-10 -73l-5 1c-24 0 -42.333 -14.333 -55 -43c-3.33301 -8.66699 -9.66602 -34 -18.999 -76l-68 -328h-98l5 371c0 50.667 -17.333 76 -52 76zM101.999 133h170l-16 -133h-169z" />
    <glyph glyph-name="quotedbl" unicode="&#x22;" horiz-adv-x="470" 
d="M102 706l168.001 0.000976562l-5 -72c0 -16.667 -0.666992 -29.334 -2 -38.001s-4 -19.667 -8 -33c-2.66699 -12 -6.33398 -23.167 -11.001 -33.5s-11.667 -23.5 -21 -39.5l-38 -70h-72l45 144h-73zM334.001 706.001h167.002l-4 -71
c0 -13.333 -0.833008 -25.5 -2.5 -36.5s-4.83398 -24 -9.50098 -39s-15.334 -37.833 -32.001 -68.5l-39 -72h-70l45 145h-72z" />
    <glyph glyph-name="numbersign" unicode="#" horiz-adv-x="526" 
d="M116 206h-97v67h107l26 193h-107v68h117l29 206h69l-29 -206h124l29 206h69l-29 -206h83v-67h-93l-27 -194h92v-67h-101l-29 -206h-69l29 206h-124l-29 -206h-69zM222 467l-27 -194h123l27 194h-123z" />
    <glyph glyph-name="dollar" unicode="$" horiz-adv-x="512" 
d="M24 187l72.001 0.000976562c10 -56.667 50.667 -85 122 -85c28.667 0 54.167 7.5 76.5 22.5s33.5 36.5 33.5 64.5c0 32 -22.667 65.667 -68 101l-126 95c-45.333 42 -68 89.333 -68 142c0 56.667 21 103 63 139c20.667 17.333 42.834 30.666 66.501 39.999
s50.167 14 79.5 14l10 83h88l-9 -85l48 -8c4.66699 0 9.16699 0.5 13.5 1.5s10.166 4.16699 17.499 9.5h70l-21 -185h-71c-6 46 -39 69 -99 69c-20 0 -38.333 -4.66699 -55 -14s-25 -24.333 -25 -45c0 -23.333 22.333 -52 67 -86c72 -52.667 114 -85 126 -97
c44.667 -44.667 67 -93.334 67 -146.001c0 -59.333 -21.833 -112.333 -65.5 -159s-95.834 -70 -156.501 -70l-15 -129h-89l14 127c-6.66699 0 -12 0.333008 -16 1s-15.333 2.83398 -34 6.50098s-33.667 5.5 -45 5.5c-10 0 -18 -4.33301 -24 -13h-70z" />
    <glyph glyph-name="percent" unicode="%" horiz-adv-x="839" 
d="M226 718c47.333 0 84.668 -19 112.001 -57c22.667 -34 34 -76.667 34 -128c0 -66 -15 -126 -45 -180c-35.333 -65.333 -83.333 -98 -144 -98c-45.333 0 -82 17.333 -110 52c-24.667 32 -37 71.333 -37 118c0 70 14 133 42 189c35.333 69.333 84.666 104 147.999 104z
M188.002 335c22.667 0 41.333 31.667 56 95c10 46 15 88 15 126c0 56.667 -13 85 -39 85c-24 0 -43 -31 -57 -93c-10 -44 -15 -85.667 -15 -125c0 -58.667 13.333 -88 40 -88zM517.001 707h96l-254 -706h-95zM604.001 421c23.333 21.333 52.667 32.0029 88 32.0029
c48.667 0 86.667 -18 114 -54c23.333 -32.667 35 -74.334 35 -125.001c0 -68 -14.333 -129.333 -43 -184c-35.333 -66 -84.333 -99 -147 -99c-48.667 0 -86.334 19.667 -113.001 59c-22.667 34 -34 76.333 -34 127c0 21.333 1.33301 40.666 4 57.999s8 37 16 59
c14.667 44 33.334 79 56.001 105c3.33301 5.33301 11.333 12.666 24 21.999zM657.002 70.0029c24 0 43.333 32.333 58 97c10 46 15 89 15 129c0 52.667 -13.667 79 -41 79c-23.333 0 -42 -31.667 -56 -95c-10 -45.333 -15 -87.333 -15 -126c0 -56 13 -84 39 -84z" />
    <glyph glyph-name="ampersand" unicode="&#x26;" horiz-adv-x="839" 
d="M224 553c0 54 20.6641 96.335 61.9971 127.002c36.667 27.333 83 41 139 41c6 0 13.333 -0.333008 22 -1s19 -2 31 -4l54 -5c6.66699 0 14.667 3.33301 24 10h68l-19 -169h-70c-9.33301 40 -33.666 60 -72.999 60c-44 0 -66 -22.667 -66 -68c0 -30 23.667 -78 71 -144
c18.667 -26 54 -71 106 -135c15.333 25.333 28 57.833 38 97.5s15 86.167 15 139.5h184l-7 -74c-15.333 -2 -26.166 -4.33301 -32.499 -7s-14 -9.5 -23 -20.5s-20.167 -35.833 -33.5 -74.5c-14 -46.667 -23.667 -74.334 -29 -83.001l-21 -44
c-1.33301 -2.66699 -5 -9.33398 -11 -20.001c31.333 -32 59.333 -56.333 84 -73c17.333 -11.333 34.333 -19.833 51 -25.5s34.334 -8.5 53.001 -8.5l-9 -72h-236l-53 60c-64 -48.667 -143.333 -73 -238 -73c-77.333 0 -143.833 26 -199.5 78s-83.5 117.333 -83.5 196
c0 64 19 120 57 168c34 44 82.667 78.333 146 103v12zM259.997 430.002c-44.667 -40.667 -67 -86 -67 -136c0 -46.667 16.667 -88.667 50 -126s73 -56 119 -56c35.333 0 71 10 107 30c-32.667 32 -70 78 -112 138z" />
    <glyph glyph-name="quotesingle" unicode="'" horiz-adv-x="246" 
d="M163 706l69 0.000976562l-44 -145h73l-16 -144h-169l5 74c0 15.333 0.666992 27 2 35s4.66602 20.667 9.99902 38c3.33301 10 7.33301 20.667 12 32s11.334 24.666 20.001 39.999z" />
    <glyph glyph-name="parenleft" unicode="(" horiz-adv-x="328" 
d="M435 814c-61.333 -74.667 -109.5 -160.5 -144.5 -257.5s-52.5 -195.167 -52.5 -294.5c0 -134 29.667 -257 89 -369h-101l-67 99c-58.667 101.333 -88 201.333 -88 300c0 81.333 16.667 158.333 50 231c27.333 61.333 70 128 128 200l40 48c14 16 29 30.333 45 43h101z
" />
    <glyph glyph-name="parenright" unicode=")" horiz-adv-x="328" 
d="M147 453c0 142.667 -29.333 262.666 -88 359.999h99c50 -66.667 87.333 -128.667 112 -186c28.667 -69.333 43 -140.666 43 -213.999c0 -135.333 -56.667 -274.666 -170 -417.999l-93 -101h-101c132 173.333 198 359.666 198 558.999z" />
    <glyph glyph-name="asterisk" unicode="*" horiz-adv-x="328" 
d="M93 671l47.999 -14.0039c0 -12 8 -22.667 24 -32s26 -16.666 30 -21.999c-4.66699 9.33301 -7 22 -7 38c0 9.33301 -6 18 -18 26l5 53h114l-5 -55l-16 -6c-4 -5.33301 -8 -14.666 -12 -27.999l-12 -27c4 4 17.333 11.333 40 22c16.667 6.66699 25 16.334 25 29.001l51 17
l25 -107l-50 -15l-9 8l-16 2l-19 -4l-19 -3l-20 6l29 -25c10.667 -10 22.334 -14 35.001 -12l25 -41l-94 -66l-28 42l7 14c0 4.66699 -2.5 13.834 -7.5 27.501s-7.5 24.167 -7.5 31.5c-10 -14 -21.333 -34 -34 -60l2 -9l3 -5l-34 -40l-85 66l36 41l13 -2
c3.33301 2 6 3.33301 8 4c6 3.33301 12.667 7.66602 20 12.999c14.667 10.667 25 17.334 31 20.001l-27 2l-26 2c-6 0 -12 -4.33301 -18 -13l-50 16z" />
    <glyph glyph-name="plus" unicode="+" horiz-adv-x="635" 
d="M72 342h241v241h103v-241h240v-102h-240v-240h-103v240h-241v102z" />
    <glyph glyph-name="comma" unicode="," horiz-adv-x="246" 
d="M44 143h169l-15 -140l-74 -150h-69l45 147h-72z" />
    <glyph glyph-name="hyphen" unicode="-" horiz-adv-x="348" 
d="M41 413h333l-13 -114h-334z" />
    <glyph glyph-name="period" unicode="." horiz-adv-x="246" 
d="M44 143h169l-16 -143h-169z" />
    <glyph glyph-name="slash" unicode="/" horiz-adv-x="287" 
d="M257 720h107l-275 -732h-107z" />
    <glyph glyph-name="zero" unicode="0" horiz-adv-x="553" 
d="M325 721c80.667 0 142.667 -28 186 -84c37.333 -50.667 56 -118 56 -202c0 -109.333 -22.667 -206.333 -68 -291c-56.667 -104.667 -134 -157 -232 -157c-76 0 -135.333 29.333 -178 88c-37.333 51.333 -56 117 -56 197c0 101.333 23 197 69 287
c56 108 130.333 162 223 162zM272 107c41.333 0 74 51.667 98 155c14.667 73.333 22 143.333 22 210c0 86.667 -22 130 -66 130c-39.333 0 -70 -51 -92 -153c-15.333 -72.667 -23 -140.667 -23 -204c0 -92 20.333 -138 61 -138z" />
    <glyph glyph-name="one" unicode="1" horiz-adv-x="553" 
d="M129 72h6c24 0 41 10 51 30c6 12 11 32.333 15 61l39 344c-21.333 -12 -54 -20 -98 -24l14 124c78.667 0 141 37.667 187 113h91l-39 -344l-17 -125c-6.66699 -55.333 -10 -97.333 -10 -126c0 -36 17.667 -54 53 -54l-9 -71h-292z" />
    <glyph glyph-name="two" unicode="2" horiz-adv-x="553" 
d="M358 514c0 28 -9.33105 50.167 -27.998 66.5s-42.334 24.5 -71.001 24.5c-19.333 0 -37.833 -5 -55.5 -15s-29.834 -23.667 -36.501 -41c-2 -7.33301 -3.66699 -12.333 -5 -15h-74l21 187h69c9.33301 -7.33301 18.333 -11.666 27 -12.999c13.333 0 34 2 62 6l64 7
c59.333 0 108.333 -15.333 147 -46c42 -34 63 -79.667 63 -137c0 -44 -13.333 -85.667 -40 -125c-19.333 -28.667 -50.333 -59.334 -93 -92.001l-109 -76c-45.333 -32 -85 -74.667 -119 -128h144c30 0 53 3 69 9c19.333 8 35 24.333 47 49v5h75l-20 -180h-502l6 48
c8.66699 65.333 44.667 129 108 191l165 138c57.333 49.333 86 95 86 137z" />
    <glyph glyph-name="three" unicode="3" horiz-adv-x="552" 
d="M22 177h72v-6c0 -20 12.333 -37 37 -51c21.333 -11.333 43.333 -17 66 -17c38 0 70.667 12.5 98 37.5s41 56.833 41 95.5c0 35.333 -10.667 62.333 -32 81c-18.667 18 -46.667 27 -84 27l8 68l71 92c28.667 36.667 53.667 65 75 85h-139c-22.667 0 -40 -3.16699 -52 -9.5
s-22 -20.5 -30 -42.5h-69l20 169h453l-7 -57l-180 -223c45.333 -8.66699 81.333 -28.5 108 -59.5s40 -69.5 40 -115.5c0 -82 -36.333 -148 -109 -198c-64.667 -43.333 -140 -65 -226 -65c-38 0 -98 9 -180 27z" />
    <glyph glyph-name="four" unicode="4" horiz-adv-x="553" 
d="M3 247c16 13.333 36.667 37.668 62 73.001l56 79l248 322h159l-47 -428h79l-11 -107h-79c-4 -22 -6 -45.667 -6 -71c0 -24.667 18.333 -39.334 55 -44.001l-8 -71h-290l9 71h5c26 0 44.667 13 56 39c2.66699 6.66699 7 31.667 13 75h-307zM321 292.002l39 273.999
c-20 -37.333 -51.667 -83.666 -95 -138.999l-104 -135h160z" />
    <glyph glyph-name="five" unicode="5" horiz-adv-x="553" 
d="M31 179l71.998 -0.000976562c13.333 -51.333 49.333 -77 108 -77c39.333 0 72.166 15.5 98.499 46.5s39.5 67.167 39.5 108.5c0 76.667 -36 115 -108 115c-21.333 0 -45.666 -8 -72.999 -24h-93l84 358h398l-20 -170h-71c0 36 -25.333 54 -76 54h-155l-29 -124l46 8
c19.333 3.33301 32.333 5 39 5c66 0 121.667 -19.667 167 -59s68 -92.333 68 -159c0 -79.333 -32.667 -145.666 -98 -198.999c-61.333 -49.333 -132.666 -74 -213.999 -74c-61.333 0 -128.666 9.66699 -201.999 29z" />
    <glyph glyph-name="six" unicode="6" horiz-adv-x="553" 
d="M574 721l-21 -180.999h-69l1 5c0 42.667 -32.667 64 -98 64c-38 0 -74.667 -21 -110 -63c-28 -36 -47 -75.667 -57 -119c38.667 32.667 83 49 133 49c58.667 0 106.834 -20.333 144.501 -61s56.5 -91 56.5 -151c0 -76.667 -25.667 -141.834 -77 -195.501
s-115 -80.5 -191 -80.5c-81.333 0 -143.333 26.333 -186 79c-40 48 -60 113.667 -60 197c0 112.667 31.667 214 95 304c35.333 50 75.166 87.667 119.499 113s93.833 38 148.5 38l39 -4l39 -3c10 0 17.667 3 23 9h70zM289 102.001c32 0 57.333 18.333 76 55
c6.66699 14.667 12 30.5 16 47.5s6 34.5 6 52.5c0 77.333 -27.333 116 -82 116c-36 0 -63.667 -15.667 -83 -47c-16 -26 -24 -58.667 -24 -98c0 -33.333 6.66699 -61.333 20 -84c16 -28 39.667 -42 71 -42z" />
    <glyph glyph-name="seven" unicode="7" horiz-adv-x="553" 
d="M431 596l-163.999 0.00195312c-58 0 -87 -19.333 -87 -58h-72l18 168h465c-11.333 -68.667 -30 -129.334 -56 -182.001c-10.667 -22 -24.667 -46.5 -42 -73.5s-38 -55.5 -62 -85.5l-98 -123c-45.333 -60.667 -68 -104 -68 -130c0 -10.667 4.5 -19.834 13.5 -27.501
s19.167 -11.5 30.5 -11.5l-9 -73h-252c13.333 80.667 48.666 157.667 105.999 231l159 175c60.667 66.667 100 130 118 190z" />
    <glyph glyph-name="eight" unicode="8" horiz-adv-x="553" 
d="M86 515c0 66 22.667 117.668 68 155.001c42 34 97.667 51 167 51c64.667 0 118 -13 160 -39c49.333 -30 74 -76 74 -138c0 -41.333 -12.5 -76.833 -37.5 -106.5s-58.5 -48.5 -100.5 -56.5c79.333 -33.333 119 -89 119 -167c0 -70 -27 -126 -81 -168
c-50 -38.667 -111 -58 -183 -58c-68.667 0 -124.667 16.333 -168 49c-48.667 36.667 -73 88 -73 154c0 49.333 13 90.666 39 123.999s63.333 55.333 112 66c-64 26 -96 70.667 -96 134zM313 434.001c26 0 45.666 10.666 58.999 31.999c11.333 18.667 17 41.334 17 68.001
c0 21.333 -6.16699 38.833 -18.5 52.5s-29.166 20.5 -50.499 20.5c-24 0 -42 -9.16699 -54 -27.5s-18 -39.833 -18 -64.5c0 -54 21.667 -81 65 -81zM363.999 230c0 67.333 -24 101 -72 101c-30 0 -53.333 -16.667 -70 -50c-12.667 -27.333 -19 -57.333 -19 -90
c0 -24 5.5 -46.167 16.5 -66.5s28.5 -30.5 52.5 -30.5c31.333 0 55.333 15.667 72 47c13.333 25.333 20 55 20 89z" />
    <glyph glyph-name="nine" unicode="9" horiz-adv-x="553" 
d="M47 169l68.998 0.000976562c4 -46 33.333 -69 88 -69c50.667 0 91.667 20 123 60c16.667 23.333 36.334 66.666 59.001 129.999c-33.333 -38.667 -80.333 -58 -141 -58c-61.333 0 -111 23.333 -149 70c-34 42 -51 95 -51 159c0 71.333 28.333 133 85 185
c54.667 49.333 118.334 74 191.001 74c77.333 0 137.333 -27.667 180 -83c38.667 -50.667 58 -115.667 58 -195c0 -122 -30.667 -225.667 -92 -311c-68 -95.333 -161 -143 -279 -143h-26c-30 0 -74 9.66699 -132 29zM294.998 336.001c34 0 60.998 15.332 80.998 45.999
c7.33301 12.667 13.333 27 18 43s7 33 7 51c0 34 -6 63 -18 87c-15.333 29.333 -38.666 44 -69.999 44c-33.333 0 -59.666 -18 -78.999 -54c-14.667 -29.333 -22 -62.666 -22 -99.999c0 -78 27.667 -117 83 -117z" />
    <glyph glyph-name="colon" unicode=":" horiz-adv-x="286" 
d="M117 444h170l-17 -144h-169zM82 143h170l-16 -143h-170z" />
    <glyph glyph-name="semicolon" unicode=";" horiz-adv-x="287" 
d="M102 444h171l-16 -144h-171zM68 143h171l-5 -70c0 -14.667 -0.833008 -26.167 -2.5 -34.5s-5.16699 -21.5 -10.5 -39.5s-16.333 -41.667 -33 -71l-39 -74h-69l45 146h-72z" />
    <glyph glyph-name="less" unicode="&#x3c;" horiz-adv-x="576" 
d="M539 446l-425 -193l425 -193v-68l-508 230v62l508 230v-68z" />
    <glyph glyph-name="equal" unicode="=" horiz-adv-x="635" 
d="M31 249h666v-103h-666v103zM31 437h666v-103h-666v103z" />
    <glyph glyph-name="greater" unicode="&#x3e;" horiz-adv-x="576" 
d="M37 60l425 193l-425 193v68l508 -230v-62l-508 -230v68z" />
    <glyph glyph-name="question" unicode="?" horiz-adv-x="430" 
d="M73 720l63 -0.00195312c8 -8 16.333 -12 25 -12c13.333 0 34.833 2 64.5 6s51.5 6 65.5 6c55.333 0 99.833 -14.667 133.5 -44s50.5 -71.333 50.5 -126c0 -36.667 -14.667 -70.667 -44 -102c-12.667 -12.667 -40.334 -35.667 -83.001 -69
c-29.333 -23.333 -44 -42.666 -44 -57.999c1.33301 -4 3.83301 -7.16699 7.5 -9.5s8.16699 -2.83301 13.5 -1.5l26 -57l-204 -94c-10 31.333 -15 54 -15 68c0 36.667 13.333 75.334 40 116.001l76 95c13.333 18 23.333 34.167 30 48.5s10 28.5 10 42.5
c0 24 -7.16699 43 -21.5 57s-34.166 21 -59.499 21c-42.667 0 -72.667 -23 -90 -69h-65zM136 131.998h170l-17 -132h-168z" />
    <glyph glyph-name="at" unicode="@" horiz-adv-x="1015" 
d="M529 500c-41.333 0 -78 -22.333 -110 -67c-27.333 -40.667 -41 -83.334 -41 -128.001c0 -27.333 7.5 -50.333 22.5 -69s35.5 -28 61.5 -28c40 0 76 24 108 72c27.333 42.667 41 85.334 41 128.001c0 22.667 -7.83301 43.667 -23.5 63s-35.167 29 -58.5 29zM662 556
l69.001 0.000976562l-73 -246c-12 -44 -18 -70.667 -18 -80c0 -19.333 7 -29 21 -29c39.333 0 74 27 104 81c25.333 46.667 38 91.667 38 135c0 77.333 -27.333 140.333 -82 189c-52 46 -117.667 69 -197 69c-87.333 0 -159.833 -31.333 -217.5 -94s-86.5 -138 -86.5 -226
s30 -162 90 -222s134 -90 222 -90c45.333 0 89.833 10 133.5 30s79.834 48 108.501 84h67c-32 -54 -76.333 -96.833 -133 -128.5s-116.334 -47.5 -179.001 -47.5c-53.333 0 -102.333 9 -147 27s-86 45.667 -124 83c-74 73.333 -111 163.333 -111 270
c0 102.667 37 191 111 265s162.667 111 266 111c92 0 171.667 -28.333 239 -85c70 -60 105 -135.667 105 -227c0 -67.333 -22.667 -131 -68 -191c-49.333 -65.333 -106.333 -98 -171 -98c-18.667 0 -34 5.66699 -46 17c-12 13.333 -18 28.666 -18 45.999
c-39.333 -42 -80 -63 -122 -63s-77 15.833 -105 47.5s-42 69.167 -42 112.5c0 35.333 5 68.333 15 99s25.667 60 47 88c44 59.333 100.333 89 169 89c51.333 0 89.666 -26 114.999 -78z" />
    <glyph glyph-name="A" unicode="A" horiz-adv-x="736" 
d="M-22 72c32.667 6 60.6689 25.668 84.002 59.001c3.33301 5.33301 9.16602 15.833 17.499 31.5l32.5 62.5l96 193c57.333 116.667 86 180.334 86 191.001c0 15.333 -9 24 -27 26l7 71l254 1l109 -463l7 -39c1.33301 -7.33301 3.66602 -17.333 6.99902 -30
c6.66699 -28 16.167 -51.167 28.5 -69.5s31.166 -29.5 56.499 -33.5l-8 -72h-295l9 73c26.667 3.33301 40 16.666 40 39.999c0 16.667 -6.33301 52.334 -19 107.001h-225c-28 -64 -42 -103 -42 -117c0 -8.66699 3.83301 -16.334 11.5 -23.001
s16.834 -9.33398 27.501 -8.00098l-7 -72h-258zM441.002 322.001l-50 233c-10 -34 -26.333 -73.333 -49 -118l-57 -115h156z" />
    <glyph glyph-name="B" unicode="B" horiz-adv-x="655" 
d="M-5 72l5.00098 1c34 0 54.333 27 61 81l32 291l9 72c4 28 6 51.667 6 71c0 34.667 -16.333 50.667 -49 48l8 70h370c57.333 0 104.666 -10.333 141.999 -31c46.667 -26.667 70 -66.334 70 -119.001c0 -44 -16.167 -82 -48.5 -114s-71.5 -48 -117.5 -48
c47.333 -4 86.666 -20.167 117.999 -48.5s47 -65.833 47 -112.5c0 -83.333 -38 -145.666 -114 -186.999c-59.333 -30.667 -135.666 -46 -228.999 -46h-318zM361.001 444c24 0 46.333 8 67 24s31 36.333 31 61c0 18 -7.83301 32.833 -23.5 44.5s-33.5 17.5 -53.5 17.5h-92
l-16 -147h87zM312.001 116c100 0 150 43.667 150 131c0 32 -12.167 55.5 -36.5 70.5s-53.833 22.5 -88.5 22.5h-76l-26 -224h77z" />
    <glyph glyph-name="C" unicode="C" horiz-adv-x="614" 
d="M640 721l-22 -190.002h-73l1 4c0 22 -12.167 39.833 -36.5 53.5s-47.833 20.5 -70.5 20.5c-66.667 0 -120 -33 -160 -99c-32.667 -57.333 -49 -121.666 -49 -192.999c0 -60.667 13.667 -110 41 -148c30 -43.333 74.667 -65 134 -65c31.333 0 58.666 8.5 81.999 25.5
s39.333 40.5 48 70.5h72l-25 -176c-67.333 -24 -139.333 -36 -216 -36c-96 0 -174.333 29 -235 87s-91 135.333 -91 232c0 110.667 36.5 207.334 109.5 290.001s164.833 124 275.5 124c15.333 0 35 -2.33301 59 -7c26 -4 45.333 -6 58 -6
c6.66699 0 15.334 4.33301 26.001 13h72z" />
    <glyph glyph-name="D" unicode="D" horiz-adv-x="675" 
d="M-8 71h8c22 0 37 7.66699 45 23c4 8 8 25.333 12 52l42 363l9 90c0 24 -17 36 -51 36l8 71h301c101.333 0 179.5 -25.333 234.5 -76s82.5 -126 82.5 -226c0 -114.667 -32.667 -209.667 -98 -285c-68 -79.333 -158.667 -119 -272 -119h-330zM278 114
c75.333 0 132 30.333 170 91c30.667 51.333 46 117 46 197c0 64.667 -10.667 110.667 -32 138c-24 33.333 -67 50 -129 50h-44l-55 -476h44z" />
    <glyph glyph-name="E" unicode="E" horiz-adv-x="594" 
d="M-4 71c23.333 0 40.332 8.33301 50.999 25c7.33301 10.667 12.666 29.667 15.999 57l17 152l18 138c7.33301 56.667 11 103 11 139c0 16 -4.16699 29.333 -12.5 40s-20.166 15 -35.499 13l8 71h550l-21 -169h-71c0 35.333 -31 53 -93 53h-141l-19 -155h165
c28.667 0 49.334 10.333 62.001 31l1 8h71l-23 -202h-71c0 35.333 -22.333 53 -67 53h-150l-24 -210h122c43.333 0 73.333 3.66699 90 11c26 10 46 31.333 60 64h71l-21 -190h-572z" />
    <glyph glyph-name="F" unicode="F" horiz-adv-x="553" 
d="M-2 72c30 0 50.333 15.667 61 47l11 85l17 154l15 111c2.66699 21.333 4.66699 41 6 59s2 35.333 2 52c0 36.667 -16.333 55 -49 55l9 71h543l-20 -176h-70l1 4c0 37.333 -32.333 56 -97 56h-135l-21 -172h145c42.667 0 69 13 79 39h72l-23 -202h-70v13
c0 28 -20.667 42 -62 42h-152l-12 -92c-2.66699 -18 -4.66699 -34.333 -6 -49s-2 -29 -2 -43c0 -24 6.66699 -39.667 20 -47c8.66699 -5.33301 26 -8 52 -8l-7 -71h-315z" />
    <glyph glyph-name="G" unicode="G" horiz-adv-x="675" 
d="M670 721l-21 -190.998h-74c-12 50 -52.667 75 -122 75c-72 0 -129.333 -32.333 -172 -97c-36.667 -57.333 -55 -123.666 -55 -198.999c0 -64 17 -114.167 51 -150.5s82.333 -54.5 145 -54.5l18 2l24 213h-40c-4 0 -9.16699 -2.33301 -15.5 -7
s-9.16602 -9.33398 -8.49902 -14.001h-72l13 126l311 1l-22 -158c-8.66699 -67.333 -13 -120 -13 -158c0 -12.667 1.5 -21.334 4.5 -26.001s10.833 -8.33398 23.5 -11.001l-7 -72h-14c-14.667 0 -27 -0.333008 -37 -1c-48.667 -3.33301 -79.334 -5 -92.001 -5l-129 -7
c-97.333 0 -176.5 29.167 -237.5 87.5s-91.5 136.5 -91.5 234.5c0 113.333 40.833 210.333 122.5 291s179.167 121 292.5 121c10 0 18 -0.333008 24 -1s18.333 -2.66699 37 -6l60 -7l12 3c5.33301 2 9.33301 5.66699 12 11h73z" />
    <glyph glyph-name="H" unicode="H" horiz-adv-x="695" 
d="M-9 72l4.99902 1c26.667 0 45.334 14.333 56.001 43l11 77l13 129l18 129c7.33301 53.333 11 96.333 11 129c0 36.667 -16.667 55 -50 55l9 71h294l-8 -70l-4 1c-26 0 -44 -13.333 -54 -40c-2.66699 -10 -6.66699 -35 -12 -75l-11 -96h215l10 81c4 32 6 59 6 81
c0 31.333 -17.333 47 -52 47l8 71h296l-8 -70h-4c-28 0 -47 -18 -57 -54l-11 -87l-12 -109l-19 -134c-7.33301 -56.667 -11 -101.667 -11 -135c0 -30 16.667 -45 50 -45l-9 -72h-294l7 72c31.333 0 52 13.667 62 41l11 81l14 116h-216l-12 -91
c-2.66699 -20 -4.66699 -36.833 -6 -50.5s-2 -27.5 -2 -41.5c0 -36 16.333 -54 49 -54l-7 -73h-295z" />
    <glyph glyph-name="I" unicode="I" horiz-adv-x="307" 
d="M3 71c33.333 6 54.333 24.665 63 55.998l10 90l13 109l17 126c7.33301 52.667 11 95 11 127c0 18.667 -3.33301 31.834 -10 39.501s-20 13.167 -40 16.5l8 71h293l-9 -71h-6c-31.333 0 -51 -28.333 -59 -85l-25 -215l-6 -51.5c-2 -16.333 -4.66699 -35.166 -8 -56.499
c-5.33301 -44.667 -8 -80.667 -8 -108c0 -32 16 -48 48 -48l-7 -71h-294z" />
    <glyph glyph-name="J" unicode="J" horiz-adv-x="307" 
d="M-113 -28l73 0.000976562c0 -36.667 11.333 -55 34 -55c28 0 47 20.667 57 62c4.66699 21.333 9.5 48.166 14.5 80.499s9.83301 68.5 14.5 108.5l19 192l13 130l10 97c0 31.333 -16.667 47 -50 47l8 72h293l-8 -71c-22.667 -2 -40 -13.333 -52 -34
c-7.33301 -13.333 -13 -35.333 -17 -66l-5 -67l-22 -223c-9.33301 -90.667 -19.666 -165 -30.999 -223c-28 -148 -110 -222 -246 -222c-14.667 0 -32.334 1.33301 -53.001 4s-43.667 7 -69 13z" />
    <glyph glyph-name="K" unicode="K" horiz-adv-x="696" 
d="M-8 71l5.99805 0.00195312c33.333 0 54 29 62 87l43 390l3 44c0 26 -16.667 40.333 -50 43l9 71h292l-7 -72h-4c-21.333 0 -37.666 -9 -48.999 -27c-5.33301 -10 -10 -29.333 -14 -58l-13 -116c38.667 24 78.334 52 119.001 84c57.333 45.333 86 78.666 86 99.999
c0 4 -1.33301 7.66699 -4 11c-1.33301 3.33301 -6.33301 6 -15 8l8 70h253l-8 -72c-32 -8 -78.667 -39.667 -140 -95c-69.333 -63.333 -117 -102 -143 -116c76.667 -10 128 -46 154 -108l33 -161c11.333 -55.333 39 -83 83 -83l-7 -71h-168c-53.333 0 -85 28.667 -95 86
l-10 160c-12 57.333 -48.667 86 -110 86l-48 -6l-14 -104c-5.33301 -42.667 -8 -77.334 -8 -104.001c0 -31.333 16.333 -47 49 -47l-7 -71h-294z" />
    <glyph glyph-name="L" unicode="L" horiz-adv-x="553" 
d="M-3 72l7.00098 0.000976562c32.667 0 52 23 58 69l47 413l2 31c0 34 -16.667 51 -50 51l8 70h314l-10 -72l-21 2c-24 0 -40.667 -8.66699 -50 -26c-5.33301 -8.66699 -10 -28.334 -14 -59.001l-50 -436l125 1c32 0 56.667 4.33301 74 13
c21.333 10.667 36.666 30.667 45.999 60h73l-22 -189h-545z" />
    <glyph glyph-name="M" unicode="M" horiz-adv-x="839" 
d="M-13 72c31.333 3.33301 52.334 20.667 63.001 52l12 87l13 117c2 20 4 37.5 6 52.5s5.66699 38.833 11 71.5c2.66699 20.667 5 42.667 7 66s3 42.666 3 57.999c0 20 -3.16699 34.5 -9.5 43.5s-19.833 14.5 -40.5 16.5l8 70h248l134 -326l202 326h252l-8 -70h-4
c-28.667 0 -48 -15.667 -58 -47c-1.33301 -2.66699 -5 -30 -11 -82l-19 -167l-15 -108c-6 -43.333 -9 -79.666 -9 -108.999c0 -34.667 17 -52 51 -52l-8 -71h-296l8 72c32 4 53 17.333 63 40c3.33301 8 7.66602 34 12.999 78l37 317l-80 -123
c-39.333 -62.667 -59 -103.334 -59 -122.001c0 -5.33301 3 -10.666 9 -15.999l-8 -62h-158l-129 313l-27 -235l-13 -132c0 -22 5.66699 -37.333 17 -46c2.66699 -2 8 -4.5 16 -7.5s19.333 -4.5 34 -4.5l-8 -72h-256z" />
    <glyph glyph-name="N" unicode="N" horiz-adv-x="695" 
d="M-7 72h6c34 0 54.333 28.667 61 86l44 397l2 27c0 19.333 -3.5 32.5 -10.5 39.5s-20.167 11.5 -39.5 13.5l9 71h219l239 -476l35 311l2 36c0 39.333 -18.333 59 -55 59l8 70h240l-8 -70c-22.667 0 -39.667 -10 -51 -30c-2.66699 -6 -5 -13 -7 -21
s-4.33301 -21.333 -7 -40l-46 -394l-1 -24c0 -18.667 2 -32 6 -40s14.667 -13 32 -15l-7 -72h-202l-250 494l1 -27c0 -37.333 -5.83301 -94.833 -17.5 -172.5s-17.5 -134.834 -17.5 -171.501c0 -19.333 5.33301 -33 16 -41c7.33301 -3.33301 22.333 -6.66602 45 -9.99902
l-8 -72h-247z" />
    <glyph glyph-name="O" unicode="O" horiz-adv-x="696" 
d="M403 721c90 0 162.332 -28.8301 216.999 -86.4971s82 -132.834 82 -225.501c0 -115.333 -32 -213 -96 -293c-68 -85.333 -159 -128 -273 -128c-91.333 0 -163.666 29.667 -216.999 89s-80 135.666 -80 228.999c0 113.333 32.333 209.666 97 288.999
c68 84 158 126 270 126zM345.999 105.003c56 0 100.667 35.998 134 107.998c25.333 56.667 38 118.334 38 185.001c0 52 -8.33301 96.667 -25 134c-22 49.333 -56.667 74 -104 74c-58 0 -103 -36.667 -135 -110c-23.333 -54.667 -35 -117 -35 -187
c0 -53.333 8.33301 -97.666 25 -132.999c21.333 -47.333 55.333 -71 102 -71z" />
    <glyph glyph-name="P" unicode="P" horiz-adv-x="594" 
d="M-5 72c12.667 0 23.001 2.16797 31.001 6.50098s15.333 11.166 22 20.499c6 11.333 11 31 15 59l44 399l2 27c0 34 -17.333 51 -52 51l9 71h370c56 0 102.333 -16.833 139 -50.5s55 -79.167 55 -136.5c0 -72.667 -25 -131 -75 -175c-24 -21.333 -51 -38 -81 -50
s-63 -18 -99 -18l-120 -1l-16 -147c0 -21.333 6 -37 18 -47c9.33301 -6 25.666 -9 48.999 -9l-8 -72h-312zM324.001 391.001c32 0 59.5 11.167 82.5 33.5s34.5 49.833 34.5 82.5c0 35.333 -12.667 59.333 -38 72c-17.333 9.33301 -45 14 -83 14h-29l-23 -202h56z" />
    <glyph glyph-name="Q" unicode="Q" horiz-adv-x="696" 
d="M573 -105c12 0 21 10.334 27 31.001h72c0 -48.667 -11.833 -85.834 -35.5 -111.501s-56.167 -38.5 -97.5 -38.5c-31.333 0 -64 12 -98 36c-20 14 -44.333 36.333 -73 67c-32.667 34.667 -56 58 -70 70c-19.333 16.667 -55.666 38.667 -108.999 66
c-47.333 24 -82.666 49.667 -105.999 77c-44 50 -66 118.667 -66 206c0 114.667 30.667 212 92 292c67.333 86.667 156.666 130 267.999 130c90.667 0 163 -25.667 217 -77c27.333 -22.667 50 -58 68 -106c6.66699 -20 12 -41 16 -63s6 -43.333 6 -64
c0 -100 -23.667 -186 -71 -258c-50 -78 -121.333 -130 -214 -156c19.333 -10 37.666 -20.333 54.999 -31l47 -31l34 -26c5.33301 -3.33301 11.5 -6.33301 18.5 -9s13.5 -4 19.5 -4zM332 105.001c58 0 102.333 37.666 133 112.999c22.667 58.667 34 121.334 34 188.001
c0 26 -2 49.667 -6 71s-10.667 41 -20 59c-22 46 -55.667 69 -101 69c-58 0 -103 -37 -135 -111c-24 -56 -36 -118.333 -36 -187c0 -54.667 8.33301 -99 25 -133c22 -46 57.333 -69 106 -69z" />
    <glyph glyph-name="R" unicode="R" horiz-adv-x="655" 
d="M-6 72c24 0 41.666 9 52.999 27c6 10 11 30 15 60l45 400l1 27c0 32.667 -16.333 49 -49 49l8 71h310c75.333 0 131.666 -7.33301 168.999 -22c58 -22 87 -65 87 -129c0 -50 -17 -92.667 -51 -128c-31.333 -31.333 -73.333 -47 -126 -47c55.333 -8 93 -37.667 113 -89
c2.66699 -7.33301 10.334 -53.333 23.001 -138c6 -48 23.667 -74.333 53 -79l18 -2l-8 -72h-150c-38 -0 -65.333 10.333 -82 31c-13.333 17.333 -20 46 -20 86l1 44l1 43c0 52 -11.333 87 -34 105c-19.333 15.333 -55.666 23 -108.999 23l-6 -51.5
c-2 -16.333 -4.66699 -35.5 -8 -57.5c-6 -44 -9 -80.667 -9 -110c0 -27.333 15.667 -41 47 -41l-7 -72h-293zM333.999 439c30.667 0 56.667 6.33398 78 19.001c24.667 15.333 37 37.666 37 66.999c0 28 -13 47 -39 57c-16 6 -41 9 -75 9h-43l-17 -152h59z" />
    <glyph glyph-name="S" unicode="S" 
d="M29 209h72.001c0 -30.667 18.333 -56.334 55 -77.001c31.333 -18 62.666 -27 93.999 -27c32 0 60.667 7 86 21c28 16 42 40 42 72c0 33.333 -26.667 63 -80 89l-149 72c-53.333 36 -80 85 -80 147c0 70 29 124 87 162c51.333 32.667 113.333 49 186 49
c15.333 0 39.333 -2 72 -6s57.334 -6 74.001 -6c12 0 23.667 4 35 12h70l-21 -189h-71c-2.66699 24.667 -21.334 44.334 -56.001 59.001c-13.333 5.33301 -27.666 9.5 -42.999 12.5s-30 4.5 -44 4.5c-24.667 0 -46.667 -4.33301 -66 -13c-24 -11.333 -36 -28.333 -36 -51
c0 -28.667 27 -54.667 81 -78c84.667 -36 134.667 -59.667 150 -71c54.667 -39.333 82 -93 82 -161c0 -76 -31 -136.667 -93 -182c-56 -38.667 -123.667 -58 -203 -58c-20.667 0 -48.834 2.16699 -84.501 6.5s-63.167 6.5 -82.5 6.5c-12.667 0 -23 -4.33301 -31 -13h-72z
" />
    <glyph glyph-name="T" unicode="T" horiz-adv-x="553" 
d="M46 706l561.997 -0.000976562l-21 -178h-73c0 40.667 -27 61 -81 61h-30l-32 -273c-3.33301 -28.667 -5.66602 -47.667 -6.99902 -57s-3.66602 -23.333 -6.99902 -42c-5.33301 -41.333 -8 -74.666 -8 -99.999c0 -18 3.33301 -29.667 10 -35s20 -9 40 -11l-8 -71h-294
l8 72c32.667 0 54.334 20 65.001 60l10 99l42 359h-44c-43.333 0 -70 -20.667 -80 -62h-72z" />
    <glyph glyph-name="U" unicode="U" horiz-adv-x="675" 
d="M52 706l294 -0.00195312l-9 -71h-4c-29.333 0 -49 -20 -59 -60l-10 -95c-2 -19.333 -4 -37.5 -6 -54.5s-4.66699 -36.833 -8 -59.5c-5.33301 -46.667 -8 -84.667 -8 -114c0 -37.333 11 -68 33 -92c22.667 -22.667 53 -34 91 -34c55.333 0 95.333 21.333 120 64
c8.66699 14 16 32 22 54s11.333 50 16 84c17.333 135.333 26 220.333 26 255c0 22 -5 36.333 -15 43s-26.667 10 -50 10l9 72h248l-7 -72c-21.333 0 -38 -8 -50 -24c-5.33301 -10 -10.666 -28.333 -15.999 -55l-28 -254c-1.33301 -11.333 -2.33301 -21 -3 -29
c-2.66699 -19.333 -6.33398 -42.666 -11.001 -69.999c-30 -144 -134 -216 -312 -216c-76.667 0 -137.667 19.333 -183 58c-49.333 41.333 -74 99.333 -74 174c0 20 1.33301 45.667 4 77s7 67.333 13 108c11.333 84.667 17 146.334 17 185.001c0 30.667 -16 46 -48 46z" />
    <glyph glyph-name="V" unicode="V" horiz-adv-x="696" 
d="M30 706l300 0.000976562l-8 -70c-27.333 -4 -41 -17.667 -41 -41c0 -26 4 -57 12 -93l21 -92l47 -234c110.667 257.333 166 398.666 166 423.999c0 10 -3.66699 18.333 -11 25c-6 6.66699 -14.333 10 -25 10l7 71h254l-9 -72c-32 -2.66699 -60.333 -24 -85 -64
c-6.66699 -10.667 -22.667 -45 -48 -103l-205 -467h-180l-63 285l-38 177l-27 108c-18 43.333 -43.333 65 -76 65z" />
    <glyph glyph-name="W" unicode="W" horiz-adv-x="1023" 
d="M43 706h294.999l-8 -70c-28.667 -4 -43 -20.333 -43 -49l9 -76c8.66699 -74 13.667 -116.333 15 -127c8.66699 -66 17.334 -125.667 26.001 -179c93.333 254 140 388 140 402c0 12.667 -4.66699 21.667 -14 27l-7 2l8 70h200l68 -502l76 203
c18.667 51.333 32.667 92.833 42 124.5s14 53.834 14 66.501c0 24.667 -11.667 37 -35 37l8 71h254l-7 -70c-36.667 -6 -67.667 -32.667 -93 -80c-2.66699 -4 -8.33398 -17 -17.001 -39l-33 -81l-164 -436h-180l-59 444l-161 -444l-182 -1l-66 450
c-10 69.333 -16.333 107.333 -19 114c-7.33301 23.333 -17.166 41.166 -29.499 53.499s-27.833 18.5 -46.5 18.5z" />
    <glyph glyph-name="X" unicode="X" horiz-adv-x="675" 
d="M-27 72c43.333 5.33301 91.6689 35.999 145.002 91.999l113 140c8 12 21.333 28.333 40 49l-68 122c-28 51.333 -49.333 85.666 -64 102.999c-30.667 38 -63.667 57 -99 57l7 71h306l-9 -71c-4.66699 2 -9.33398 0.333008 -14.001 -5s-7.33398 -11.333 -8.00098 -18
c0 -9.33301 8.33301 -28.666 25 -57.999l35 -61c56.667 70 85 111 85 123c0 4.66699 -2.66699 9.16699 -8 13.5s-10.666 6.5 -15.999 6.5l8 70h273l-10 -71c-32.667 0 -67.667 -15.333 -105 -46c-26.667 -21.333 -58.334 -54.666 -95.001 -99.999l-75 -97l77 -138
c31.333 -57.333 54 -94.333 68 -111c34 -44.667 67 -68.667 99 -72l-8 -71h-305l8 72h5c9.33301 3.33301 15.333 7.33301 18 12l2 20c0 11.333 -10.667 35.333 -32 72l-43 76l-62 -76c-29.333 -38.667 -44 -65 -44 -79s9.66699 -22.333 29 -25l-9 -72h-276z" />
    <glyph glyph-name="Y" unicode="Y" horiz-adv-x="655" 
d="M52 706h300.003l-9 -71c-18.667 0 -28 -9.33301 -28 -28c0 -12 10 -44.667 30 -98l42 -104l64 106c31.333 53.333 47 87.333 47 102c0 6 -2.16699 11 -6.5 15s-9.83301 6 -16.5 6l7 72h246l-9 -71c-34.667 0 -71.334 -26.667 -110.001 -80l-77 -122l-95 -151
c-11.333 -92 -17 -147 -17 -165s4 -30 12 -36c3.33301 -2.66699 15.666 -6 36.999 -10l-8 -71h-295l8 71l3 -1c26.667 0 45 12.667 55 38c2.66699 8 7 32.667 13 74l12 96c-6.66699 12 -18.667 37.667 -36 77l-58 145c-8.66699 21.333 -16.334 38.833 -23.001 52.5
s-12.667 24.5 -18 32.5c-22 33.333 -46.333 50 -73 50h-6z" />
    <glyph glyph-name="Z" unicode="Z" horiz-adv-x="553" 
d="M-7 69l373 520h-110c-66 0 -101.333 -20.333 -106 -61h-72l18 178h514l-9 -70l-372 -520h114c41.333 0 72.333 4.66699 93 14c30 12 48 35.333 54 70h71l-22 -200h-554z" />
    <glyph glyph-name="bracketleft" unicode="[" horiz-adv-x="328" 
d="M143 814h290l-8 -67h-119l-89 -785h119l-8 -68h-288z" />
    <glyph glyph-name="backslash" unicode="\" horiz-adv-x="278" 
d="M-17 737h66l246 -756h-67z" />
    <glyph glyph-name="bracketright" unicode="]" horiz-adv-x="328" 
d="M-42 -38h118l88 783h-117l7 68h288l-102 -920h-289z" />
    <glyph glyph-name="asciicircum" unicode="^" horiz-adv-x="0" 
d="M15 925h143c17.333 -20 53.333 -70 108 -150h-134l-49 92l-71 -92h-135l66 75c14.667 18 38.667 43 72 75z" />
    <glyph glyph-name="underscore" unicode="_" horiz-adv-x="556" 
d="M0 -125v50h556v-50h-556z" />
    <glyph glyph-name="grave" unicode="`" horiz-adv-x="0" 
d="M-23 793l135 -130h-123l-204 130h192z" />
    <glyph glyph-name="a" unicode="a" 
d="M77 418l22 184h65c6 -9.33301 16.667 -14 32 -14c16.667 0 39 2.33301 67 7l66 7c146.667 0 220 -57.667 220 -173c0 -17.333 -1 -37 -3 -59s-5.66699 -50 -11 -84c-9.33301 -65.333 -14 -113.333 -14 -144c0 -46 18 -71 54 -75l-8 -67h-198
c-2.66699 26.667 -4 52.334 -4 77.001c-18 -28.667 -42.667 -50.834 -74 -66.501s-64 -23.5 -98 -23.5c-52.667 0 -96.667 15.833 -132 47.5s-53 73.5 -53 125.5c0 39.333 13 75 39 107s69.333 56 130 72l140 28c44 12 66 32 66 60c0 41.333 -34.333 62 -103 62
c-74 0 -119.333 -23.667 -136 -71h-67zM188 169c0 -17.333 6.16602 -32.498 18.499 -45.498s27.5 -19.5 45.5 -19.5c36.667 0 66 21.333 88 64c16.667 35.333 25 73.666 25 114.999c-10 -6 -33.167 -13.333 -69.5 -22s-61.166 -17.334 -74.499 -26.001
c-22 -14 -33 -36 -33 -66z" />
    <glyph glyph-name="b" unicode="b" horiz-adv-x="635" 
d="M-5 67c20 0 34.668 6 44.001 18c5.33301 7.33301 9.66602 23.333 12.999 48l61 528l2 15c0 23.333 -15.333 35 -46 35l7 67h218l-28 -237c9.33301 15.333 32.666 30 69.999 44c32.667 11.333 60.334 17 83.001 17c68 0 122.667 -26.667 164 -80
c18.667 -24 32.667 -50.5 42 -79.5s14 -61.833 14 -98.5c0 -92 -24.667 -172.667 -74 -242c-55.333 -76.667 -127.333 -115 -216 -115c-62 0 -111 30 -147 90c-4 -17.333 -12.333 -43 -25 -77h-190zM329.001 102c42.667 0 76.332 32.667 100.999 98c18 48 27 98.667 27 152
c0 91.333 -32 137 -96 137c-44 0 -77.333 -31.333 -100 -94c-16.667 -48 -25 -98 -25 -150c0 -36.667 6.33301 -68 19 -94c16.667 -32.667 41.334 -49 74.001 -49z" />
    <glyph glyph-name="c" unicode="c" horiz-adv-x="512" 
d="M544 603l-20 -185.998h-68c0 48.667 -27.333 73 -82 73c-51.333 0 -91.666 -26.667 -120.999 -80c-25.333 -44.667 -38 -94.334 -38 -149.001c0 -42 10 -78.667 30 -110c23.333 -34.667 55.666 -52 96.999 -52c24 0 46.333 8.16699 67 24.5s35 36.833 43 61.5h68
l-40 -176c-40 -14.667 -91 -22 -153 -22c-90 0 -161 22 -213 66c-55.333 46 -83 114 -83 204c0 93.333 30.667 174.166 92 242.499s138 102.5 230 102.5c5.33301 0 12.333 -0.333008 21 -1s18.667 -2 30 -4l51 -4c11.333 0 20.333 3.33301 27 10h62z" />
    <glyph glyph-name="d" unicode="d" horiz-adv-x="635" 
d="M469 674c0 24.667 -14.666 37 -43.999 37l7 66l220 -1c-8.66699 -82.667 -16.334 -153 -23.001 -211c-8.66699 -75.333 -14.667 -126 -18 -152l-20 -146c-3.33301 -24.667 -6 -50 -8 -76s-3 -49.333 -3 -70c0 -32.667 14.667 -51.334 44 -56.001l-7 -65h-192v20
c0 4 0.333008 11.833 1 23.5s2 26.834 4 45.501c-44 -68 -105 -102 -183 -102c-67.333 0 -122 25 -164 75c-38 46 -57 104 -57 174c0 92 28.333 174.667 85 248c60.667 78.667 136 118 226 118c44 0 84.333 -14.333 121 -43c7.33301 58.667 11 97 11 115zM306.001 101
c47.333 0 83 39.999 107 119.999c16.667 58.667 25 118.667 25 180c0 59.333 -31 89 -93 89c-43.333 0 -79 -30.667 -107 -92c-20.667 -49.333 -31 -99.666 -31 -150.999c0 -97.333 33 -146 99 -146z" />
    <glyph glyph-name="e" unicode="e" 
d="M207 281l0.00292969 -15.001l-1 -14c0 -46 13.667 -83.167 41 -111.5s63.666 -42.5 108.999 -42.5c25.333 0 53.666 8 84.999 24c36.667 18.667 55 39.667 55 63h73l-32 -155c-32.667 -14 -66.834 -24.667 -102.501 -32s-73.167 -11 -112.5 -11
c-87.333 0 -157.333 22.333 -210 67c-55.333 48 -83 115.333 -83 202c0 91.333 29 171 87 239c61.333 70.667 137.333 106 228 106c76 0 134.667 -20.167 176 -60.5s62 -99.166 62 -176.499c0 -16.667 -1 -32.5 -3 -47.5s-3.66699 -26.833 -5 -35.5h-367zM413.003 374.999
l2 29c0 24.667 -6.66699 45 -20 61c-12 17.333 -30 26 -54 26c-30 0 -56.667 -12 -80 -36c-19.333 -20 -33 -46.667 -41 -80h193z" />
    <glyph glyph-name="f" unicode="f" horiz-adv-x="348" 
d="M-97 -174l6.00098 -1.00391c38 0 71.667 18 101 54c34 46 60 143.333 78 292l27 319h-63l11 90h62c2 12.667 3.5 21.334 4.5 26.001s4.16699 16.334 9.5 35.001c33.333 98.667 100.666 148 201.999 148c5.33301 0 12.166 -0.333008 20.499 -1s17.833 -2 28.5 -4l49 -4
l12 9h65l-18 -165h-65c0 43.333 -20.667 65 -62 65c-40.667 0 -67 -36.333 -79 -109h117l-11 -90h-114c0 -29.333 -2.33301 -67.666 -7 -114.999s-8 -83.333 -10 -108c0 -47.333 -3.66699 -95.666 -11 -144.999c-3.33301 -22 -10.666 -60.667 -21.999 -116
c-18 -92 -41.333 -158.333 -70 -199c-23.333 -33.333 -56 -50 -98 -50h-171z" />
    <glyph glyph-name="g" unicode="g" horiz-adv-x="594" 
d="M76 -36l40.9971 -52v-5l-1 -8c2.66699 -20 22.334 -35.333 59.001 -46c26 -7.33301 53.333 -11 82 -11c26.667 0 51 4 73 12c29.333 10 44 26.333 44 49c0 19.333 -15 31 -45 35c-8.66699 0 -20 0.333008 -34 1s-29.667 2 -47 4c-29.333 0 -55.5 3 -78.5 9
s-44.167 14.333 -63.5 25c-46 25.333 -69 64.666 -69 117.999c0 25.333 7.16699 51.5 21.5 78.5s32.833 46.833 55.5 59.5c-42 40 -63 86 -63 138c0 70 29.333 125.333 88 166c50.667 35.333 112.667 53 186 53c24 0 40 -0.333008 48 -1c18.667 -3.33301 33 -5.33301 43 -6
c40 -4 70 -6 90 -6c22 0 37.5 2.16699 46.5 6.5s18.5 15.833 28.5 34.5h63l-16 -133l-39 -4c-13.333 0 -29.666 3 -48.999 9c28.667 -30.667 43 -67.667 43 -111c0 -65.333 -28.333 -119 -85 -161c-52 -36.667 -112 -55 -180 -55c-29.333 0 -70.666 7 -123.999 21
c-11.333 -10 -17 -21.333 -17 -34c0 -24 21.333 -39 64 -45l140 -7c60 -6 104 -23.667 132 -53c13.333 -13.333 23.333 -28 30 -44s10 -34.667 10 -56c0 -71.333 -35 -127.666 -105 -168.999c-58 -34 -126.667 -51 -206 -51c-147.333 0 -248 48 -302 144zM304.997 276
c32.667 0 59.167 10.5 79.5 31.5s30.5 48.5 30.5 82.5c0 26 -8.33301 47.167 -25 63.5s-38.667 24.5 -66 24.5c-28 0 -51.833 -10.833 -71.5 -32.5s-29.5 -47.167 -29.5 -76.5c0 -24 7.5 -45.5 22.5 -64.5s34.833 -28.5 59.5 -28.5z" />
    <glyph glyph-name="h" unicode="h" horiz-adv-x="635" 
d="M-7 68l4.99902 -0.000976562l5 -1c10.667 0 23.667 8 39 24c2 6 7.66699 40.667 17 104c4 36.667 8.33301 73.334 13 110.001c2.66699 24.667 7.33398 65.167 14.001 121.5l19 160.5l7 88c0 24.667 -14.667 37 -44 37l6 66h219l-28 -244c30.667 22 57.667 38.667 81 50
c27.333 12 58.666 18 93.999 18c52.667 0 93.834 -14.667 123.501 -44s44.5 -70 44.5 -122c0 -17.333 -1.33301 -39.333 -4 -66s-7 -57.667 -13 -93c-10.667 -74.667 -16 -128 -16 -160c0 -34 16.333 -51 49 -51l-8 -66h-272l8 66c24 0 40.333 11.667 49 35l10 62l11 89
l16 152c0 48.667 -24 73 -72 73c-45.333 0 -79 -24.333 -101 -73c-11.333 -24 -21 -68.667 -29 -134l-11 -77l-5 -42.5c-1.33301 -11.667 -2 -23.167 -2 -34.5c0 -12 4 -23.667 12 -35s18.333 -16 31 -14l-7 -67h-268z" />
    <glyph glyph-name="i" unicode="i" horiz-adv-x="287" 
d="M137 783h170l-16 -132h-168zM5 67c28 0 46 12.332 54 36.999l10 72l12 104l13 102c5.33301 42.667 8 77.334 8 104.001c0 25.333 -14.667 38 -44 38l7 65h219l-31 -273l-13 -102c-5.33301 -42.667 -8 -77 -8 -103c0 -29.333 15.667 -44 47 -44l-8 -67h-273z" />
    <glyph glyph-name="j" unicode="j" horiz-adv-x="286" 
d="M143 783h170l-16 -132h-169zM-108 -67l65.001 -0.000976562c0 -21.333 1.33301 -36 4 -44c4 -16.667 14.333 -25 31 -25c21.333 0 37.666 16 48.999 48l12 76l48 420l3 34l3 35c0 16 -3 27.167 -9 33.5s-17.667 10.833 -35 13.5l8 66h220l-63 -544
c-10 -91.333 -29 -159.666 -57 -204.999c-38 -62 -98 -93 -180 -93c-19.333 0 -38 1.66699 -56 5s-38.333 9.33301 -61 18z" />
    <glyph glyph-name="k" unicode="k" horiz-adv-x="614" 
d="M-5 68l7.00293 -0.999023c20 0 34.333 10.333 43 31c2.66699 7.33301 6 26.333 10 57l51 440l7 66c0 14 -0.833008 23 -2.5 27s-8.83398 11.333 -21.501 22c-4 1.33301 -10.667 2 -20 2l7 66h221l-47 -408c23.333 4.66699 54.666 22.667 93.999 54
c42.667 33.333 64 60.333 64 81c0 10.667 -10 17 -30 19l7 65h249l-9 -66c-11.333 0 -38.666 -18.667 -81.999 -56l-82 -71c-30.667 -24.667 -58.334 -42 -83.001 -52c62 -14 104.333 -45.667 127 -95l34 -124c12 -39.333 37.667 -59 77 -59l-9 -66h-186
c-32.667 0 -53.334 17.333 -62.001 52l-11 110c-4.66699 45.333 -18.667 77.666 -42 96.999c-6 4.66699 -14.833 8.5 -26.5 11.5s-25.5 4.5 -41.5 4.5l-10 -81c-4 -32 -6 -59 -6 -81c0 -13.333 3.66699 -24.333 11 -33s19 -13 35 -13l-8 -67h-273z" />
    <glyph glyph-name="l" unicode="l" horiz-adv-x="286" 
d="M5 68l20.001 2.00195c14 2 24 14 30 36l8 50l39 330l13 87c2 18.667 3.66699 35 5 49s2 27.333 2 40c0 35.333 -14.667 51.666 -44 48.999l8 66h220l-43 -375c-3.33301 -24 -6.33301 -46.833 -9 -68.5s-6.33398 -46.834 -11.001 -75.501
c-8 -57.333 -12 -105.333 -12 -144c0 -14 4 -25.333 12 -34s19.333 -13 34 -13l-8 -67h-272z" />
    <glyph glyph-name="m" unicode="m" horiz-adv-x="941" 
d="M-10 67l4.00098 -1.00195c29.333 0 47 23.333 53 70l20 176l17 169c0 28.667 -14 43 -42 43l7 66h204l-9 -75c57.333 59.333 117 89 179 89c30.667 0 59.5 -8 86.5 -24s45.833 -38 56.5 -66c64.667 59.333 124.667 89 180 89c47.333 0 86.833 -13.5 118.5 -40.5
s47.5 -64.5 47.5 -112.5c0 -39.333 -5.16699 -95.666 -15.5 -168.999s-15.5 -129.333 -15.5 -168c0 -30.667 15.333 -46 46 -46l-7 -67l-223 -1l31 273c8 67.333 12 111.333 12 132c0 48 -20.667 72 -62 72c-48 0 -81 -32.333 -99 -97c-4 -18 -11 -70 -21 -156l-10 -107
c0 -18 3 -30.167 9 -36.5s18.333 -10.5 37 -12.5l-7 -67h-223l27 203c10 80 15 148 15 204c0 46 -21.667 69 -65 69c-36.667 0 -64.334 -21.333 -83.001 -64c-9.33301 -23.333 -17.333 -60.666 -24 -111.999c-13.333 -108.667 -20 -172.667 -20 -192
c0 -27.333 15.667 -41 47 -41l-8 -67h-270z" />
    <glyph glyph-name="n" unicode="n" horiz-adv-x="635" 
d="M-3 66c19.333 0 34.002 5.33301 44.002 16c7.33301 8 12.333 23.333 15 46l19 171l19 180c0 30 -14.667 45 -44 45l8 65h203l-7 -78l23 24c48 44.667 101.667 67 161 67c48.667 0 89.167 -15.167 121.5 -45.5s48.5 -70.166 48.5 -119.499
c0 -35.333 -5 -88.833 -15 -160.5s-15 -125.5 -15 -161.5c0 -32 15.333 -48 46 -48l-7 -67h-274l8 67h4c21.333 0 36.666 11 45.999 33c2 5.33301 5.66699 25.666 11 60.999l14 115c7.33301 62.667 11 102 11 118c0 54 -22.667 81 -68 81c-49.333 0 -85 -30.333 -107 -91
c-6.66699 -20.667 -15.334 -71.667 -26.001 -153l-10 -123c0 -27.333 15.333 -41 46 -41l-9 -67h-272z" />
    <glyph glyph-name="o" unicode="o" horiz-adv-x="614" 
d="M353 602c81.333 0 145.833 -24.334 193.5 -73.001s71.5 -113.667 71.5 -195c0 -96 -29 -177 -87 -243c-60.667 -68.667 -138.667 -103 -234 -103c-86 0 -152.333 23.333 -199 70s-70 113.334 -70 200.001c0 98 29.833 179.833 89.5 245.5s138.167 98.5 235.5 98.5z
M306 100.999c44 0 78.667 30 104 90c18 45.333 27 95.333 27 150c0 38.667 -6.33301 71 -19 97c-16 33.333 -42 50 -78 50c-46 0 -81 -28.667 -105 -86c-18 -44 -27 -92.333 -27 -145c0 -104 32.667 -156 98 -156z" />
    <glyph glyph-name="p" unicode="p" horiz-adv-x="635" 
d="M-34 -175c21.333 2 36.667 7.99902 46 17.999c5.33301 5.33301 19.833 105.5 43.5 300.5s35.5 306.833 35.5 335.5c0 12.667 -1.33301 21.334 -4 26.001l-20 17c-4 1.33301 -8 2 -12 2h-9l8 67h205l-7 -63l19 21c36 36 83.333 54 142 54
c72.667 0 129.667 -26.667 171 -80c38 -48 57 -109.333 57 -184c0 -90 -26.667 -169.667 -80 -239c-58.667 -74.667 -131.667 -112 -219 -112c-54.667 0 -98 19 -130 57c-11.333 -98 -17 -156.667 -17 -176c0 -30 20 -45 60 -45l-8 -66h-288zM330.001 100.999
c44 0 78 30.333 102 91c17.333 44.667 26 94 26 148c0 99.333 -29 149 -87 149c-90.667 0 -136 -84.333 -136 -253c0 -90 31.667 -135 95 -135z" />
    <glyph glyph-name="q" unicode="q" horiz-adv-x="614" 
d="M474 590l200.999 -0.000976562l-7 -67l-10 -1l-9 -1c-19.333 -2.66699 -33 -25 -41 -67l-9 -88l-24 -214l-19 -142c-3.33301 -24.667 -6 -49.667 -8 -75s-3 -48 -3 -68c0 -31.333 15.667 -45.666 47 -42.999l-8 -66h-289l8 68c28.667 0 49 9.33301 61 28
c6.66699 11.333 13 42 19 92l10 102c-44 -40 -92 -60 -144 -60c-68 0 -123 25 -165 75c-39.333 46.667 -59 104.667 -59 174c0 90 28 172 84 246c60.667 79.333 135.334 119 224.001 119c62 0 107 -23.333 135 -70zM208.999 239.999c0 -36 7.33398 -66.667 22.001 -92
c17.333 -30 42.666 -45 75.999 -45c44.667 0 78.667 37 102 111c15.333 53.333 23 109.333 23 168c0 72.667 -29.333 109 -88 109c-45.333 0 -81 -31.667 -107 -95c-18.667 -48.667 -28 -100.667 -28 -156z" />
    <glyph glyph-name="r" unicode="r" horiz-adv-x="409" 
d="M3 67h4l3 -1c22 0 37.333 12.333 46 37l10 66l14 131l12 90l5 51c1.33301 14 2 27.333 2 40c0 13.333 -3.83301 23.833 -11.5 31.5s-18.5 11.5 -32.5 11.5l7 65h206l-10 -98c48 74 100.333 111 157 111c16.667 0 34 -3.33301 52 -10l-19 -175h-68l1 5v4
c0 24 -11.667 36 -35 36c-40 0 -71 -47.667 -93 -143c-14 -64 -21 -128.667 -21 -194c0 -24 6 -40.667 18 -50c8 -6 25.667 -9 53 -9l-7 -66h-300z" />
    <glyph glyph-name="s" unicode="s" horiz-adv-x="512" 
d="M23 182h68.001c6 -25.333 23.667 -46 53 -62c25.333 -12.667 52.666 -19 81.999 -19c25.333 0 46.666 4.33301 63.999 13c22.667 10 34 26.667 34 50s-23 45.666 -69 66.999c-74.667 32 -118 52.333 -130 61c-46 32 -69 74.333 -69 127c0 60 26 107 78 141
c22 14 46.5 24.667 73.5 32s56.5 11 88.5 11c12 0 31.667 -2 59 -6l59 -5c8 0 17.333 3.33301 28 10h66l-21 -182l-67 -1v5c0 18.667 -14.667 35.334 -44 50.001c-24.667 11.333 -48 17 -70 17c-18 0 -35.167 -3.5 -51.5 -10.5s-24.5 -18.167 -24.5 -33.5
c0 -19.333 23.667 -38.333 71 -57c66.667 -26 110.334 -46.333 131.001 -61c47.333 -34 71 -79.333 71 -136c0 -68 -27.667 -120.667 -83 -158c-48 -32 -108 -48 -180 -48c-18 0 -43 2.16699 -75 6.5s-57 6.5 -75 6.5c-7.33301 0 -15.333 -4.33301 -24 -13h-66z" />
    <glyph glyph-name="t" unicode="t" horiz-adv-x="409" 
d="M45 563c16.667 0 33.001 3.49902 49.001 10.499s32.667 17.833 50 32.5c27.333 23.333 49.666 52.333 66.999 87h93l-13 -114h123l-9 -89h-124l-20 -156c-8.66699 -68 -13 -120.333 -13 -157c0 -49.333 18.667 -74 56 -74c30 0 51.333 21.333 64 64h68l-16 -154
c-82 -18 -137.333 -27 -166 -27c-54 0 -96.333 13.333 -127 40c-32.667 28.667 -49 69.334 -49 122.001c0 48 4 105 12 171l23 170h-76z" />
    <glyph glyph-name="u" unicode="u" horiz-adv-x="635" 
d="M51 590l220.998 -0.000976562l-27 -193c-10 -77.333 -15 -142.333 -15 -195c0 -60 24 -90 72 -90c52.667 0 90 36.333 112 109c4.66699 17.333 13.334 75.666 26.001 174.999l8 75c0 16.667 -2.5 28.834 -7.5 36.501s-17.167 13.167 -36.5 16.5l7 65h221l-34 -289
c-11.333 -98.667 -17 -155.667 -17 -171c0 -40 14.667 -61.333 44 -64l-7 -65l-193 1l-2 38v22c0 6 1.33301 15.667 4 29c-51.333 -68 -115.666 -102 -192.999 -102c-54 0 -97 14.5 -129 43.5s-48 70.5 -48 124.5c0 36.667 5.16699 92.834 15.5 168.501
s15.5 129.5 15.5 161.5c0 14 -4 24 -12 30l-32 8z" />
    <glyph glyph-name="v" unicode="v" horiz-adv-x="594" 
d="M33 590l267.998 0.000976562l-9 -67c-22.667 0 -34 -13.667 -34 -41c0 -10.667 4 -36 12 -76c10 -64 27.333 -153 52 -267l78 181c37.333 92 56 149 56 171c0 20.667 -11 31 -33 31l7 68h219l-7 -68c-26 -4 -46 -17 -60 -39c-16.667 -26 -36 -63 -58 -111l-49 -116
l-112 -256h-176l-82 386c-9.33301 45.333 -16.666 73.333 -21.999 84c-6.66699 17.333 -14.667 30.666 -24 39.999s-20.666 14 -33.999 14z" />
    <glyph glyph-name="w" unicode="w" horiz-adv-x="880" 
d="M22 590l277 -0.00390625l-7 -68h-4c-4.66699 0 -8 -0.666992 -10 -2c-17.333 -12 -26 -29 -26 -51c0 -11.333 1 -25.166 3 -41.499s5.66699 -39.166 11 -68.499l27 -150l8 -39l67 172c34 90 51 142.667 51 158c0 6 -2.5 11.167 -7.5 15.5s-11.833 6.5 -20.5 6.5l6 68h173
l69 -418l63 160c29.333 76.667 44 128.334 44 155.001c0 20 -13.333 32 -40 36l7 67h222l-7 -67c-25.333 0 -49 -19.667 -71 -59l-38 -91l-48 -124l-99 -249h-158l-55 332l-125 -332h-159l-50 258l-26 147c-16.667 68.667 -40 107.334 -70 116.001l-15 3z" />
    <glyph glyph-name="x" unicode="x" horiz-adv-x="614" 
d="M-11 68c52.667 14 100.667 42.334 144 85.001l111 126l-67 107c-29.333 47.333 -47.333 75 -54 83c-18.667 23.333 -45.667 41.666 -81 54.999l7 66h283l-7 -67c-19.333 0 -30 -7.66699 -32 -23c0 -14.667 17.667 -48 53 -100l43 49c18 22 27 40.333 27 55
c0 6.66699 -4 12.667 -12 18l-10 2l8 66h224l-7 -67c-28.667 -3.33301 -56 -17 -82 -41l-62 -70l-79 -92l90 -147c42 -62 82.333 -97 121 -105l-8 -68h-277l8 67c14 6 21.333 13.667 22 23c0 12 -7.66699 30.333 -23 55l-34 55l-49 -56c-22 -27.333 -33 -48 -33 -62l2 -5
l7 -7l9 -2l-8 -68h-243z" />
    <glyph glyph-name="y" unicode="y" horiz-adv-x="614" 
d="M-18 -74l67.002 1.00098c0 -43.333 19.333 -65 58 -65c23.333 0 46.666 11 69.999 33c18 18 33.333 39.667 46 65l-102 384l-28 105c-17.333 49.333 -37 74 -59 74h-6l8 66h268l-9 -67h-4c-8 0 -15 -3 -21 -9s-9 -13 -9 -21c0 -24.667 6.33301 -64.667 19 -120l51 -206
l81 166c40.667 85.333 61 136.666 61 153.999c0 24.667 -12.333 37 -37 37l8 66h221l-8 -67c-22.667 0 -49 -26.333 -79 -79l-54 -109l-154 -307c-46.667 -94 -84.334 -157 -113.001 -189c-53.333 -62 -116.333 -93 -189 -93c-15.333 0 -30.833 1.66699 -46.5 5
s-34.5 9.33301 -56.5 18z" />
    <glyph glyph-name="z" unicode="z" horiz-adv-x="512" 
d="M-12 54l339 436h-89c-67.333 0 -107 -20.333 -119 -61h-66l42 161h459l-7 -68l-327 -418h131c20 0 39.667 5 59 15c22 12.667 33 28.667 33 48h66l-30 -167h-497z" />
    <glyph glyph-name="braceleft" unicode="{" horiz-adv-x="334" 
d="M42 294c36 0 59.998 22.3359 71.998 67.0029c2.66699 10 4.66699 24.667 6 44s2 42 2 68l-1 43c0 31.333 0.666992 57.166 2 77.499s4.33301 38.166 9 53.499c15.333 50 46.333 75 93 75h67v-65h-44c-30.667 0 -46 -27.333 -46 -82v-113l-1 -57
c0 -28 -8.16699 -56.333 -24.5 -85s-37.166 -47 -62.499 -55c58.667 -19.333 88 -86.333 88 -201l-1 -87c0 -72 15.667 -108 47 -108h44v-65h-67c-31.333 0 -56.166 13.167 -74.499 39.5s-27.5 56.166 -27.5 89.499v171c0 29.333 -6 57 -18 83c-14 31.333 -35 47 -63 47v60z
" />
    <glyph glyph-name="bar" unicode="|" horiz-adv-x="260" 
d="M94 737h73v-756h-73v756z" />
    <glyph glyph-name="braceright" unicode="}" horiz-adv-x="334" 
d="M292 234c-27.333 0 -48.333 -15.665 -63 -46.998c-12 -24 -18 -51.667 -18 -83v-171c0 -33.333 -8.33301 -62.333 -25 -87c-19.333 -28 -45 -42 -77 -42h-67v65h44c30.667 0 46 36 46 108l-1 86c0 50.667 4.33301 90 13 118c12.667 42.667 38 70 76 82
c-25.333 8 -46.666 27.333 -63.999 58c-8.66699 15.333 -14.834 29.166 -18.501 41.499s-5.5 26.166 -5.5 41.499v171c0 54.667 -15.333 82 -46 82h-44v65h67c50.667 0 83 -31.333 97 -94c4 -21.333 6 -73 6 -155c0 -54 2.66699 -91.333 8 -112
c11.333 -44.667 35.333 -67 72 -67v-60z" />
    <glyph glyph-name="asciitilde" unicode="~" horiz-adv-x="0" 
d="M-99 871c44 18 75.998 27 95.998 27c9.33301 0 21.333 -1.33301 36 -4s31.334 -7 50.001 -13c40.667 -10.667 69.667 -16 87 -16c22.667 0 40.667 11 54 33h63l-31 -94c-40 -20 -75.333 -30 -106 -30c-18 0 -46.167 5 -84.5 15s-67.5 15 -87.5 15
c-17.333 0 -31.666 -9.66699 -42.999 -29h-67z" />
    <glyph glyph-name="nonbreakingspace" unicode="&#xa0;" horiz-adv-x="500" 
 />
    <glyph glyph-name="exclamdown" unicode="&#xa1;" horiz-adv-x="328" 
d="M128 706h170l-15 -135h-170zM-4 73c26.667 0 47 14 61 42c2 5.33301 5 16.166 9 32.499l11 45.5l68 323l98 -1l-5 -367c0 -23.333 2.33301 -40.666 7 -51.999c7.33301 -14.667 22 -22 44 -22l-9 -74h-293z" />
    <glyph glyph-name="cent" unicode="&#xa2;" horiz-adv-x="512" 
d="M330 692l87.001 0.00195312l-11 -95l49 -4c11.333 0 20.333 3.33301 27 10h62l-20 -186h-70c0 48.667 -26.667 73 -80 73c-51.333 0 -91.666 -26.667 -120.999 -80c-25.333 -44.667 -38 -94.334 -38 -149.001c0 -42.667 10.667 -80.167 32 -112.5s53 -48.5 95 -48.5
c23.333 0 46 8 68 24c20 16 34 36.333 42 61h68l-39 -176c-18.667 -6.66699 -39.334 -12 -62.001 -16s-49.334 -6 -80.001 -6l-14 -131h-87l15 137c-71.333 12 -126.333 41 -165 87s-58 105 -58 177c0 85.333 27 161.666 81 228.999s123.667 105.333 209 114z" />
    <glyph glyph-name="sterling" unicode="&#xa3;" 
d="M-8 71c30.667 0 56.668 14.668 78.001 44.001c8.66699 12.667 22.334 41 41.001 85l47 124h-88l11 97h116c78 200 166.667 300 266 300c9.33301 0 24.333 -2 45 -6s36 -6 46 -6c5.33301 0 11.666 4 18.999 12h64l-20 -178h-72l1 9v9c0 12 -3.83301 22.167 -11.5 30.5
s-17.5 12.5 -29.5 12.5c-42 0 -86.333 -61.333 -133 -184h106l-10 -96l-136 1c-13.333 -30.667 -27.333 -67.334 -42 -110.001l-40 -112h90c37.333 0 64.166 4.5 80.499 13.5s31.5 29.833 45.5 62.5h71l-20 -179h-533z" />
    <glyph glyph-name="currency" unicode="&#xa4;" horiz-adv-x="713" 
d="M33 265l36 64h59v26c2 8 3.33301 14 4 18h-84l36 64h63c25.333 82 70 149.333 134 202c68 54.667 145 82 231 82c16 0 36 -2.33301 60 -7c26 -4 45 -6 57 -6c6.66699 0 15.334 4.33301 26.001 13h72l-22 -190h-73l1 4c0 22.667 -12 40.667 -36 54s-47.667 20 -71 20
c-47.333 0 -88.333 -17.333 -123 -52c-29.333 -29.333 -52 -69.333 -68 -120h262l-36 -64h-240l-3 -44h216l-36 -64h-177c8 -48.667 25.333 -86.667 52 -114c30 -31.333 69.667 -47 119 -47c31.333 0 58.666 8.5 81.999 25.5s39.333 40.5 48 70.5h72l-25 -176
c-66 -24 -138 -36 -216 -36c-45.333 0 -86.333 6 -123 18s-70 30.667 -100 56c-58 50 -91.333 117.667 -100 203h-97z" />
    <glyph glyph-name="section" unicode="&#xa7;" horiz-adv-x="532" 
d="M8 12l67.9961 -0.00195312c12 -55.333 61.667 -83 149 -83c19.333 0 38.5 5.33301 57.5 16s28.5 25.667 28.5 45c0 25.333 -23.333 48 -70 68c-71.333 30.667 -114.333 51 -129 61c-46.667 34.667 -70 82.334 -70 143.001c0 29.333 9 59.333 27 90
s40.667 52.334 68 65.001c-15.333 10.667 -28.333 27.334 -39 50.001s-16 45 -16 67c0 60 25.333 107.333 76 142c44.667 29.333 98.334 44 161.001 44c13.333 0 34.833 -2 64.5 -6s52.167 -6 67.5 -6l9 2l13 11h66l-22 -187l-68 -1c-2.66699 23.333 -18 42 -46 56
c-22.667 11.333 -47.334 17 -74.001 17c-15.333 0 -30.666 -3 -45.999 -9c-17.333 -8 -26 -19.333 -26 -34c0 -18 23 -36.667 69 -56c66 -24.667 109 -44.667 129 -60c46.667 -34.667 70 -81 70 -139c0 -30.667 -8.83301 -60.5 -26.5 -89.5s-40.834 -51.167 -69.501 -66.5
c23.333 -21.333 39.5 -42 48.5 -62s13.5 -45.333 13.5 -76c0 -62.667 -27.333 -113.334 -82 -152.001c-49.333 -32.667 -107 -49 -173 -49c-15.333 0 -27.166 0.5 -35.499 1.5s-22.666 3 -42.999 6s-36.666 5.16699 -48.999 6.5s-23.833 2 -34.5 2
c-5.33301 0 -13.666 -5 -24.999 -15h-64zM353.996 274.998c0 22 -12.9971 40.999 -38.9971 56.999c-10.667 7.33301 -33.334 17 -68.001 29c-8.66699 -4.66699 -18.334 -13.667 -29.001 -27c-2 -2.66699 -4.66699 -7.5 -8 -14.5s-5 -13.833 -5 -20.5
c0 -24 12.333 -44.333 37 -61c11.333 -7.33301 34.666 -17.666 69.999 -30.999c28 14 42 36.667 42 68z" />
    <glyph glyph-name="dieresis" unicode="&#xa8;" horiz-adv-x="0" 
d="M-109 781h135l-14 -118h-136zM107 780h135l-14 -119h-135z" />
    <glyph glyph-name="copyright" unicode="&#xa9;" horiz-adv-x="751" 
d="M361 648c91.333 0 169.333 -32.333 234 -97s97 -142.667 97 -234c0 -92 -32.167 -170.167 -96.5 -234.5s-142.5 -96.5 -234.5 -96.5c-91.333 0 -169.333 32.333 -234 97s-97 142.667 -97 234s32.333 169.333 97 234s142.667 97 234 97zM361 24
c80.667 0 149.667 28.667 207 86s86 126.333 86 207s-28.667 149.667 -86 207s-126.333 86 -207 86s-149.667 -28.667 -207 -86s-86 -126.333 -86 -207s28.667 -149.667 86 -207s126.333 -86 207 -86zM503 497l4 -123h-19c-5.33301 28.667 -18.5 52.667 -39.5 72
s-46.167 29 -75.5 29c-39.333 0 -71.666 -18 -96.999 -54c-22 -32 -33 -69 -33 -111c0 -44.667 10.667 -80 32 -106c22 -30 54.667 -45 98 -45c26 0 48.667 4.33301 68 13c14 6 33 19 57 39l11 -17c-44.667 -46.667 -92.334 -70 -143.001 -70c-54 0 -98.333 17 -133 51
s-52 78.667 -52 134c0 51.333 17 96 51 134s76.667 57 128 57c13.333 0 30.333 -3.33301 51 -10c22 -6 39 -9 51 -9c11.333 0 19 5.33301 23 16h18z" />
    <glyph glyph-name="guillemotleft" unicode="&#xab;" horiz-adv-x="491" 
d="M143 538h126l-126 -186l86 -186h-124l-88 187c63.333 83.333 105.333 145 126 185zM389 539h125l-125 -186l87 -187h-125l-88 187z" />
    <glyph glyph-name="logicalnot" unicode="&#xac;" horiz-adv-x="677" 
d="M-4 276h639v-276h-53v224h-586v52z" />
    <glyph glyph-name="registered" unicode="&#xae;" horiz-adv-x="751" 
d="M360 -19c-91.333 0 -169.333 32.333 -234 97s-97 142.667 -97 234s32.667 169.333 98 234s143 97 233 97c91.333 0 169.333 -32.333 234 -97s97 -142.667 97 -234s-32.333 -169.333 -97 -234s-142.667 -97 -234 -97zM359 605
c-80.667 0 -149.499 -28.832 -206.499 -86.499s-85.5 -126.834 -85.5 -207.501s28.833 -149.5 86.5 -206.5s126.5 -85.5 206.5 -85.5c80.667 0 149.667 28.667 207 86s86 126.333 86 207c0 80 -28.833 148.833 -86.5 206.5s-126.834 86.5 -207.501 86.5zM310.001 190.001
c0 -18.667 15 -28 45 -28v-17h-153v17c31.333 0 47 8.33301 47 25v277c0 14 -3.66699 23 -11 27l-31 1v18h164c87.333 0 131 -30 131 -90c0 -26 -9.5 -48.5 -28.5 -67.5s-42.167 -28.5 -69.5 -28.5l115 -148c7.33301 -9.33301 19 -14 35 -14v-17h-91l-128 170h-25v-125z
M310.001 337.001c34.667 0 62.333 4.33301 83 13c29.333 11.333 44 32 44 62c0 25.333 -5.5 43.333 -16.5 54s-31.167 18 -60.5 22l-31 2c-13.333 0 -20 -6.66699 -20 -20z" />
    <glyph glyph-name="degree" unicode="&#xb0;" horiz-adv-x="380" 
d="M182 370c-38.667 0 -72.334 14.001 -101.001 42.001s-43 61.667 -43 101c0 38 14.167 71.5 42.5 100.5s62.166 43.5 101.499 43.5c38.667 0 72.334 -14.333 101.001 -43s43 -62.334 43 -101.001s-14.167 -72.167 -42.5 -100.5s-62.166 -42.5 -101.499 -42.5zM181 618.001
c-28 0 -52.5 -10.333 -73.5 -31s-31.5 -45.334 -31.5 -74.001c0 -28 10.333 -52.5 31 -73.5s45.667 -31.5 75 -31.5s54.333 10.333 75 31s31 45.334 31 74.001c0 28 -10.833 52.5 -32.5 73.5s-46.5 31.5 -74.5 31.5z" />
    <glyph glyph-name="plusminus" unicode="&#xb1;" horiz-adv-x="522" 
d="M224 392v227h53v-227h227v-53h-227v-228h-53v228h-227v53h227zM-3 0v53h507v-53h-507z" />
    <glyph glyph-name="acute" unicode="&#xb4;" horiz-adv-x="0" 
d="M129 794h194l-212 -130h-122z" />
    <glyph glyph-name="mu" unicode="&#xb5;" horiz-adv-x="547" 
d="M127 480l-0.000976562 -319c0 -31.333 7.5 -57.5 22.5 -78.5s37.833 -31.5 68.5 -31.5c20 0 40.667 7.33301 62 22s36.666 31.667 45.999 51v356h82v-369c0 -18 4.33301 -35.833 13 -53.5s21.667 -26.5 39 -26.5c16.667 0 29 7.66699 37 23l14 44l19 -1
c-16 -75.333 -55 -113 -117 -113c-27.333 0 -48 9.33301 -62 28c-8 12 -15.667 34.333 -23 67c-44 -63.333 -94.667 -95 -152 -95c-19.333 0 -36.666 5.33301 -51.999 16l-45 31v-22c0 -17.333 5.16699 -43.5 15.5 -78.5s15.5 -60.167 15.5 -75.5
c0 -16.667 -3.66699 -32.334 -11 -47.001s-18.666 -22 -33.999 -22s-27 7.16699 -35 21.5s-12 29.833 -12 46.5c0 17.333 4.5 43.333 13.5 78s13.5 60.334 13.5 77.001v471h82z" />
    <glyph glyph-name="paragraph" unicode="&#xb6;" horiz-adv-x="667" 
d="M539 706l0.00195312 -54h-34v-819h-58v819h-144v-819h-58v486c-48.667 8 -87.334 28.667 -116.001 62c-27.333 34.667 -41 76.667 -41 126c0 63.333 21.333 113 64 149c39.333 33.333 91.666 50 156.999 50h230z" />
    <glyph glyph-name="periodcentered" unicode="&#xb7;" horiz-adv-x="163" 
d="M139 370c20 0 37.5 -8.33496 52.5 -25.002s22.5 -35 22.5 -55c0 -19.333 -7.83301 -37.166 -23.5 -53.499s-34.167 -24.5 -55.5 -24.5c-20.667 0 -38.5 7.83301 -53.5 23.5s-22.5 33.5 -22.5 53.5c0 22.667 7.83301 41.834 23.5 57.501s34.5 23.5 56.5 23.5z" />
    <glyph glyph-name="periodcentered" unicode="&#x2219;" horiz-adv-x="163" 
d="M139 370c20 0 37.5 -8.33496 52.5 -25.002s22.5 -35 22.5 -55c0 -19.333 -7.83301 -37.166 -23.5 -53.499s-34.167 -24.5 -55.5 -24.5c-20.667 0 -38.5 7.83301 -53.5 23.5s-22.5 33.5 -22.5 53.5c0 22.667 7.83301 41.834 23.5 57.501s34.5 23.5 56.5 23.5z" />
    <glyph glyph-name="cedilla" unicode="&#xb8;" horiz-adv-x="0" 
d="M-96 -158c25.333 -10.667 47.332 -16 65.999 -16c10.667 0 21.334 2.5 32.001 7.5s16 12.167 16 21.5c0 18 -10.667 27 -32 27l-27 -3l-25 41l40 49.5l58 67.5h89l-72 -88h6c28.667 0 53 -7.33301 73 -22s30 -35.667 30 -63c0 -36.667 -18.333 -66 -55 -88
c-30 -18 -65.333 -27 -106 -27c-28 0 -73.667 12 -137 36z" />
    <glyph glyph-name="guillemotright" unicode="&#xbb;" horiz-adv-x="491" 
d="M385 351l-84 185.001h124l86 -186l-127 -185h-125c10 18 30.5 48.167 61.5 90.5s52.5 74.166 64.5 95.499zM140 350.001l-86 186h124l86 -185l-126 -186h-125z" />
    <glyph glyph-name="questiondown" unicode="&#xbf;" horiz-adv-x="429" 
d="M189 706h169l-16 -131h-168zM128 453l203.999 94.002c9.33301 -22.667 14 -45.334 14 -68.001c0 -36 -13.333 -73.667 -40 -113l-74 -95c-26.667 -36.667 -40 -69.334 -40 -98.001c0 -20 7 -37 21 -51s31 -21 51 -21s41 6.66699 63 20c25.333 14 36.666 30.333 33.999 49
h67l-21 -183h-63c-11.333 8 -21.666 12.667 -30.999 14c-8.66699 0 -15.667 -0.333008 -21 -1s-16.666 -2.66699 -33.999 -6l-54 -7c-56.667 0 -102.667 12.333 -138 37c-41.333 28 -62 69 -62 123c0 39.333 14.667 76 44 110c13.333 15.333 41 39 83 71
c29.333 22 44 39.667 44 53c0 12.667 -7.33301 18 -22 16z" />
    <glyph glyph-name="Agrave" unicode="&#xc0;" horiz-adv-x="736" 
d="M349 903l135 -129h-123l-203 129h191zM-22 72c32.667 6 60.6689 25.668 84.002 59.001c3.33301 5.33301 9.16602 15.833 17.499 31.5l32.5 62.5l96 193c57.333 116.667 86 180.334 86 191.001c0 15.333 -9 24 -27 26l7 71l254 1l109 -463l7 -39
c1.33301 -7.33301 3.66602 -17.333 6.99902 -30c6.66699 -28 16.167 -51.167 28.5 -69.5s31.166 -29.5 56.499 -33.5l-8 -72h-295l9 73c26.667 3.33301 40 16.666 40 39.999c0 16.667 -6.33301 52.334 -19 107.001h-225c-28 -64 -42 -103 -42 -117
c0 -8.66699 3.83301 -16.334 11.5 -23.001s16.834 -9.33398 27.501 -8.00098l-7 -72h-258zM441.002 322.001l-50 233c-10 -34 -26.333 -73.333 -49 -118l-57 -115h156z" />
    <glyph glyph-name="Aacute" unicode="&#xc1;" horiz-adv-x="736" 
d="M499 905h194l-210 -130h-123zM-22 72c32.667 6 60.6689 25.668 84.002 59.001c3.33301 5.33301 9.16602 15.833 17.499 31.5l32.5 62.5l96 193c57.333 116.667 86 180.334 86 191.001c0 15.333 -9 24 -27 26l7 71l254 1l109 -463l7 -39
c1.33301 -7.33301 3.66602 -17.333 6.99902 -30c6.66699 -28 16.167 -51.167 28.5 -69.5s31.166 -29.5 56.499 -33.5l-8 -72h-295l9 73c26.667 3.33301 40 16.666 40 39.999c0 16.667 -6.33301 52.334 -19 107.001h-225c-28 -64 -42 -103 -42 -117
c0 -8.66699 3.83301 -16.334 11.5 -23.001s16.834 -9.33398 27.501 -8.00098l-7 -72h-258zM441.002 322.001l-50 233c-10 -34 -26.333 -73.333 -49 -118l-57 -115h156z" />
    <glyph glyph-name="Acircumflex" unicode="&#xc2;" horiz-adv-x="736" 
d="M369 925l143 0.000976562c13.333 -16.667 28.333 -37 45 -61l62 -89h-133l-50 92l-70 -92h-135l52 59c20 23.333 48.667 53.666 86 90.999zM-22 72.001c32.667 6 60.6689 25.668 84.002 59.001c3.33301 5.33301 9.16602 15.833 17.499 31.5l32.5 62.5l96 193
c57.333 116.667 86 180.334 86 191.001c0 15.333 -9 24 -27 26l7 71l254 1l109 -463l7 -39c1.33301 -7.33301 3.66602 -17.333 6.99902 -30c6.66699 -28 16.167 -51.167 28.5 -69.5s31.166 -29.5 56.499 -33.5l-8 -72h-295l9 73c26.667 3.33301 40 16.666 40 39.999
c0 16.667 -6.33301 52.334 -19 107.001h-225c-28 -64 -42 -103 -42 -117c0 -8.66699 3.83301 -16.334 11.5 -23.001s16.834 -9.33398 27.501 -8.00098l-7 -72h-258zM441.002 322.002l-50 233c-10 -34 -26.333 -73.333 -49 -118l-57 -115h156z" />
    <glyph glyph-name="Atilde" unicode="&#xc3;" horiz-adv-x="736" 
d="M255 871c39.333 18 71.002 27.001 95.002 27.001c10 0 22.167 -1.33301 36.5 -4s30.833 -7 49.5 -13c39.333 -11.333 68.333 -17 87 -17c22 0 40 11.333 54 34h64l-32 -94c-5.33301 -1.33301 -11.333 -3.33301 -18 -6s-17.334 -7.33398 -32.001 -14.001s-34 -10 -58 -10
c-18.667 0 -46.834 5 -84.501 15s-66.167 15 -85.5 15c-18 0 -32.333 -9.66699 -43 -29h-67zM-21.998 72.001c32.667 6 60.6689 25.668 84.002 59.001c3.33301 5.33301 9.16602 15.833 17.499 31.5l32.5 62.5l96 193c57.333 116.667 86 180.334 86 191.001
c0 15.333 -9 24 -27 26l7 71l254 1l109 -463l7 -39c1.33301 -7.33301 3.66602 -17.333 6.99902 -30c6.66699 -28 16.167 -51.167 28.5 -69.5s31.166 -29.5 56.499 -33.5l-8 -72h-295l9 73c26.667 3.33301 40 16.666 40 39.999c0 16.667 -6.33301 52.334 -19 107.001h-225
c-28 -64 -42 -103 -42 -117c0 -8.66699 3.83301 -16.334 11.5 -23.001s16.834 -9.33398 27.501 -8.00098l-7 -72h-258zM441.004 322.002l-50 233c-10 -34 -26.333 -73.333 -49 -118l-57 -115h156z" />
    <glyph glyph-name="Adieresis" unicode="&#xc4;" horiz-adv-x="736" 
d="M231 892h135l-13 -118h-135zM492 891h134l-13 -117h-136zM-22 72c32.667 6 60.6689 25.668 84.002 59.001c3.33301 5.33301 9.16602 15.833 17.499 31.5l32.5 62.5l96 193c57.333 116.667 86 180.334 86 191.001c0 15.333 -9 24 -27 26l7 71l254 1l109 -463l7 -39
c1.33301 -7.33301 3.66602 -17.333 6.99902 -30c6.66699 -28 16.167 -51.167 28.5 -69.5s31.166 -29.5 56.499 -33.5l-8 -72h-295l9 73c26.667 3.33301 40 16.666 40 39.999c0 16.667 -6.33301 52.334 -19 107.001h-225c-28 -64 -42 -103 -42 -117
c0 -8.66699 3.83301 -16.334 11.5 -23.001s16.834 -9.33398 27.501 -8.00098l-7 -72h-258zM441.002 322.001l-50 233c-10 -34 -26.333 -73.333 -49 -118l-57 -115h156z" />
    <glyph glyph-name="Aring" unicode="&#xc5;" horiz-adv-x="736" 
d="M424 924c22.667 0 41.667 -6.83301 57 -20.5s23 -32.167 23 -55.5c0 -24 -8.83301 -43.5 -26.5 -58.5s-38.834 -22.5 -63.501 -22.5c-19.333 0 -36.166 7.16699 -50.499 21.5s-21.5 31.5 -21.5 51.5c0 22 8.16699 41.5 24.5 58.5s35.5 25.5 57.5 25.5zM454 850
c0 17.333 -10.667 26.001 -32 26.001c-6 0 -12.5 -2.83301 -19.5 -8.5s-11.167 -11.834 -12.5 -18.501v-8c0 -17.333 8.66699 -26 26 -26c8.66699 0 17 2.5 25 7.5s12.333 11.833 13 20.5v7zM-22 72.001c32.667 6 60.6689 25.668 84.002 59.001
c3.33301 5.33301 9.16602 15.833 17.499 31.5l32.5 62.5l96 193c57.333 116.667 86 180.334 86 191.001c0 15.333 -9 24 -27 26l7 71l254 1l109 -463l7 -39c1.33301 -7.33301 3.66602 -17.333 6.99902 -30c6.66699 -28 16.167 -51.167 28.5 -69.5s31.166 -29.5 56.499 -33.5
l-8 -72h-295l9 73c26.667 3.33301 40 16.666 40 39.999c0 16.667 -6.33301 52.334 -19 107.001h-225c-28 -64 -42 -103 -42 -117c0 -8.66699 3.83301 -16.334 11.5 -23.001s16.834 -9.33398 27.501 -8.00098l-7 -72h-258zM441.002 322.002l-50 233
c-10 -34 -26.333 -73.333 -49 -118l-57 -115h156z" />
    <glyph glyph-name="AE" unicode="&#xc6;" horiz-adv-x="1085" 
d="M-33 70c55.333 14 120.333 66.998 195 158.998l263 320c24 29.333 36 50.333 36 63c0 11.333 -8.33301 19 -25 23l8 71h658l-20 -169l-70 1c-4 19.333 -13 33 -27 41c-4.66699 2.66699 -11.5 4.83398 -20.5 6.50098s-18.833 2.5 -29.5 2.5l-89 2h-34l-35 -1l-17 -156h54
l39 1l39 1c29.333 0 48 1 56 3c18 4 31.333 15.667 40 35h71l-24 -201h-70v4c0 33.333 -25.333 50 -76 50h-70l-71 -1l-24 -210h60l60 -1c87.333 0 137.333 25.333 150 76h72l-21 -190h-571l9 71c30 4 49 16.667 57 38l12 72l10 95h-212l-65 -84
c-15.333 -21.333 -27 -39.166 -35 -53.499s-12 -24.833 -12 -31.5c0 -28 13 -40.333 39 -37l-8 -70h-309zM576 379.998l24 217l-168 -217h144z" />
    <glyph glyph-name="Ccedilla" unicode="&#xc7;" horiz-adv-x="614" 
d="M640 721l-22.0029 -190.003h-73l1 4c0 22 -12.167 39.833 -36.5 53.5s-47.833 20.5 -70.5 20.5c-66.667 0 -120 -33 -160 -99c-32.667 -57.333 -49 -121.666 -49 -192.999c0 -60.667 13.667 -110 41 -148c30 -43.333 74.333 -65 133 -65c31.333 0 58.833 8.33301 82.5 25
s39.834 40.334 48.501 71.001h72l-26 -176c-32 -11.333 -65.5 -20.166 -100.5 -26.499s-70.167 -9.5 -105.5 -9.5l-32 -39h6c28.667 0 53 -7.33301 73 -22s30 -35.334 30 -62.001c0 -36.667 -18.333 -66.334 -55 -89.001c-30 -18 -65.333 -27 -106 -27
c-27.333 0 -73 12 -137 36l45 57c12 -6 22.667 -10.167 32 -12.5s20.333 -3.5 33 -3.5c10.667 0 21.334 2.5 32.001 7.5s16 12.167 16 21.5c0 18 -11.667 27 -35 27l-24 -3l-26 40l30 40l30 37c-78 15.333 -138.667 50.833 -182 106.5s-65 123.834 -65 204.501
c0 110.667 36.5 207.334 109.5 290.001s164.833 124 275.5 124c15.333 0 35 -2.33301 59 -7c26 -4 45.333 -6 58 -6c6.66699 0 15.334 4.33301 26.001 13h72z" />
    <glyph glyph-name="Egrave" unicode="&#xc8;" horiz-adv-x="594" 
d="M280 903l136 -129h-124l-203 129h191zM-4 71c23.333 0 40.332 8.33301 50.999 25c7.33301 10.667 12.666 29.667 15.999 57l17 152l18 138c7.33301 56.667 11 103 11 139c0 16 -4.16699 29.333 -12.5 40s-20.166 15 -35.499 13l8 71h550l-21 -169h-71
c0 35.333 -31 53 -93 53h-141l-19 -155h165c28.667 0 49.334 10.333 62.001 31l1 8h71l-23 -202h-71c0 35.333 -22.333 53 -67 53h-150l-24 -210h122c43.333 0 73.333 3.66699 90 11c26 10 46 31.333 60 64h71l-21 -190h-572z" />
    <glyph glyph-name="Eacute" unicode="&#xc9;" horiz-adv-x="594" 
d="M431 905h194l-211 -130h-123zM-4 71c23.333 0 40.332 8.33301 50.999 25c7.33301 10.667 12.666 29.667 15.999 57l17 152l18 138c7.33301 56.667 11 103 11 139c0 16 -4.16699 29.333 -12.5 40s-20.166 15 -35.499 13l8 71h550l-21 -169h-71c0 35.333 -31 53 -93 53
h-141l-19 -155h165c28.667 0 49.334 10.333 62.001 31l1 8h71l-23 -202h-71c0 35.333 -22.333 53 -67 53h-150l-24 -210h122c43.333 0 73.333 3.66699 90 11c26 10 46 31.333 60 64h71l-21 -190h-572z" />
    <glyph glyph-name="Ecircumflex" unicode="&#xca;" horiz-adv-x="594" 
d="M165 780c6 4 20.667 18.667 44 44l92 101h143c13.333 -16.667 28.333 -37 45 -61l62 -89h-133l-50 92l-70 -92h-136zM-4 71c23.333 0 40.332 8.33301 50.999 25c7.33301 10.667 12.666 29.667 15.999 57l17 152l18 138c7.33301 56.667 11 103 11 139
c0 16 -4.16699 29.333 -12.5 40s-20.166 15 -35.499 13l8 71h550l-21 -169h-71c0 35.333 -31 53 -93 53h-141l-19 -155h165c28.667 0 49.334 10.333 62.001 31l1 8h71l-23 -202h-71c0 35.333 -22.333 53 -67 53h-150l-24 -210h122c43.333 0 73.333 3.66699 90 11
c26 10 46 31.333 60 64h71l-21 -190h-572z" />
    <glyph glyph-name="Edieresis" unicode="&#xcb;" horiz-adv-x="594" 
d="M154 893h134l-13 -118h-134zM413 892h136l-14 -118h-134zM-4 71c23.333 0 40.332 8.33301 50.999 25c7.33301 10.667 12.666 29.667 15.999 57l17 152l18 138c7.33301 56.667 11 103 11 139c0 16 -4.16699 29.333 -12.5 40s-20.166 15 -35.499 13l8 71h550l-21 -169h-71
c0 35.333 -31 53 -93 53h-141l-19 -155h165c28.667 0 49.334 10.333 62.001 31l1 8h71l-23 -202h-71c0 35.333 -22.333 53 -67 53h-150l-24 -210h122c43.333 0 73.333 3.66699 90 11c26 10 46 31.333 60 64h71l-21 -190h-572z" />
    <glyph glyph-name="Igrave" unicode="&#xcc;" horiz-adv-x="307" 
d="M142 903l136 -129h-124l-203 129h191zM3 71c33.333 6 54.333 24.665 63 55.998l10 90l13 109l17 126c7.33301 52.667 11 95 11 127c0 18.667 -3.33301 31.834 -10 39.501s-20 13.167 -40 16.5l8 71h293l-9 -71h-6c-31.333 0 -51 -28.333 -59 -85l-25 -215l-6 -51.5
c-2 -16.333 -4.66699 -35.166 -8 -56.499c-5.33301 -44.667 -8 -80.667 -8 -108c0 -32 16 -48 48 -48l-7 -71h-294z" />
    <glyph glyph-name="Iacute" unicode="&#xcd;" horiz-adv-x="307" 
d="M293 905h194l-211 -130h-123zM3 71c33.333 6 54.333 24.665 63 55.998l10 90l13 109l17 126c7.33301 52.667 11 95 11 127c0 18.667 -3.33301 31.834 -10 39.501s-20 13.167 -40 16.5l8 71h293l-9 -71h-6c-31.333 0 -51 -28.333 -59 -85l-25 -215l-6 -51.5
c-2 -16.333 -4.66699 -35.166 -8 -56.499c-5.33301 -44.667 -8 -80.667 -8 -108c0 -32 16 -48 48 -48l-7 -71h-294z" />
    <glyph glyph-name="Icircumflex" unicode="&#xce;" horiz-adv-x="307" 
d="M163 925h143c13.333 -16.667 28.333 -37 45 -61l62 -89h-133l-50 92l-70 -92h-136c22 31.333 68.333 81.333 139 150zM3 71c33.333 6 54.333 24.665 63 55.998l10 90l13 109l17 126c7.33301 52.667 11 95 11 127c0 18.667 -3.33301 31.834 -10 39.501
s-20 13.167 -40 16.5l8 71h293l-9 -71h-6c-31.333 0 -51 -28.333 -59 -85l-25 -215l-6 -51.5c-2 -16.333 -4.66699 -35.166 -8 -56.499c-5.33301 -44.667 -8 -80.667 -8 -108c0 -32 16 -48 48 -48l-7 -71h-294z" />
    <glyph glyph-name="Idieresis" unicode="&#xcf;" horiz-adv-x="307" 
d="M16 893h134l-13 -118h-134zM276 892h135l-14 -118h-134zM3 71c33.333 6 54.333 24.665 63 55.998l10 90l13 109l17 126c7.33301 52.667 11 95 11 127c0 18.667 -3.33301 31.834 -10 39.501s-20 13.167 -40 16.5l8 71h293l-9 -71h-6c-31.333 0 -51 -28.333 -59 -85
l-25 -215l-6 -51.5c-2 -16.333 -4.66699 -35.166 -8 -56.499c-5.33301 -44.667 -8 -80.667 -8 -108c0 -32 16 -48 48 -48l-7 -71h-294z" />
    <glyph glyph-name="Ntilde" unicode="&#xd1;" horiz-adv-x="695" 
d="M234 871c44 18 76.002 27 96.002 27c10 0 22.167 -1.33301 36.5 -4s30.833 -7 49.5 -13c7.33301 -2 20.666 -5.16699 39.999 -9.5s34.666 -6.5 45.999 -6.5c22.667 0 41 11 55 33h63l-31 -94l-50 -21c-16 -6 -34.667 -9 -56 -9c-18 0 -46.167 5 -84.5 15
s-67.5 15 -87.5 15c-18 0 -32.333 -9.66699 -43 -29h-67zM-6.99805 72h6c34 0 54.333 28.667 61 86l44 397l2 27c0 19.333 -3.5 32.5 -10.5 39.5s-20.167 11.5 -39.5 13.5l9 71h219l239 -476l35 311l2 36c0 39.333 -18.333 59 -55 59l8 70h240l-8 -70
c-22.667 0 -39.667 -10 -51 -30c-2.66699 -6 -5 -13 -7 -21s-4.33301 -21.333 -7 -40l-46 -394l-1 -24c0 -18.667 2 -32 6 -40s14.667 -13 32 -15l-7 -72h-202l-250 494l1 -27c0 -37.333 -5.83301 -94.833 -17.5 -172.5s-17.5 -134.834 -17.5 -171.501
c0 -19.333 5.33301 -33 16 -41c7.33301 -3.33301 22.333 -6.66602 45 -9.99902l-8 -72h-247z" />
    <glyph glyph-name="Ograve" unicode="&#xd2;" horiz-adv-x="696" 
d="M329 903l136 -129h-124l-203 129h191zM403 721c90 0 162.332 -28.8301 216.999 -86.4971s82 -132.834 82 -225.501c0 -115.333 -32 -213 -96 -293c-68 -85.333 -159 -128 -273 -128c-91.333 0 -163.666 29.667 -216.999 89s-80 135.666 -80 228.999
c0 113.333 32.333 209.666 97 288.999c68 84 158 126 270 126zM345.999 105.003c56 0 100.667 35.998 134 107.998c25.333 56.667 38 118.334 38 185.001c0 52 -8.33301 96.667 -25 134c-22 49.333 -56.667 74 -104 74c-58 0 -103 -36.667 -135 -110
c-23.333 -54.667 -35 -117 -35 -187c0 -53.333 8.33301 -97.666 25 -132.999c21.333 -47.333 55.333 -71 102 -71z" />
    <glyph glyph-name="Oacute" unicode="&#xd3;" horiz-adv-x="696" 
d="M480 905h193l-210 -130h-123zM403 721c90 0 162.332 -28.8301 216.999 -86.4971s82 -132.834 82 -225.501c0 -115.333 -32 -213 -96 -293c-68 -85.333 -159 -128 -273 -128c-91.333 0 -163.666 29.667 -216.999 89s-80 135.666 -80 228.999
c0 113.333 32.333 209.666 97 288.999c68 84 158 126 270 126zM345.999 105.003c56 0 100.667 35.998 134 107.998c25.333 56.667 38 118.334 38 185.001c0 52 -8.33301 96.667 -25 134c-22 49.333 -56.667 74 -104 74c-58 0 -103 -36.667 -135 -110
c-23.333 -54.667 -35 -117 -35 -187c0 -53.333 8.33301 -97.666 25 -132.999c21.333 -47.333 55.333 -71 102 -71z" />
    <glyph glyph-name="Ocircumflex" unicode="&#xd4;" horiz-adv-x="696" 
d="M350 925l142.999 0.00195312c12.667 -20.667 30 -46 52 -76l55 -74h-133l-51 92l-70 -92l-136 -1c10.667 17.333 30.334 39.666 59.001 66.999s48.667 47.666 60 60.999zM402.999 721.002c90 0 162.332 -28.8301 216.999 -86.4971s82 -132.834 82 -225.501
c0 -115.333 -32 -213 -96 -293c-68 -85.333 -159 -128 -273 -128c-91.333 0 -163.666 29.667 -216.999 89s-80 135.666 -80 228.999c0 113.333 32.333 209.666 97 288.999c68 84 158 126 270 126zM345.998 105.005c56 0 100.667 35.998 134 107.998
c25.333 56.667 38 118.334 38 185.001c0 52 -8.33301 96.667 -25 134c-22 49.333 -56.667 74 -104 74c-58 0 -103 -36.667 -135 -110c-23.333 -54.667 -35 -117 -35 -187c0 -53.333 8.33301 -97.666 25 -132.999c21.333 -47.333 55.333 -71 102 -71z" />
    <glyph glyph-name="Otilde" unicode="&#xd5;" horiz-adv-x="696" 
d="M234 871c44 18 75.665 27 94.998 27c22 0 51.833 -5.66699 89.5 -17s65.834 -17 84.501 -17c28 0 46 11.333 54 34h63l-31 -94l-50 -21c-16 -6 -34.667 -9 -56 -9c-18 0 -46.167 5 -84.5 15s-67.5 15 -87.5 15c-13.333 0 -27.666 -9.66699 -42.999 -29h-67zM402.998 721
c90 0 162.332 -28.8301 216.999 -86.4971s82 -132.834 82 -225.501c0 -115.333 -32 -213 -96 -293c-68 -85.333 -159 -128 -273 -128c-91.333 0 -163.666 29.667 -216.999 89s-80 135.666 -80 228.999c0 113.333 32.333 209.666 97 288.999c68 84 158 126 270 126z
M345.997 105.003c56 0 100.667 35.998 134 107.998c25.333 56.667 38 118.334 38 185.001c0 52 -8.33301 96.667 -25 134c-22 49.333 -56.667 74 -104 74c-58 0 -103 -36.667 -135 -110c-23.333 -54.667 -35 -117 -35 -187c0 -53.333 8.33301 -97.666 25 -132.999
c21.333 -47.333 55.333 -71 102 -71z" />
    <glyph glyph-name="Odieresis" unicode="&#xd6;" horiz-adv-x="696" 
d="M234 893h136l-15 -118h-134zM495 892h134l-13 -118h-136zM403 721c90 0 162.332 -28.8301 216.999 -86.4971s82 -132.834 82 -225.501c0 -115.333 -32 -213 -96 -293c-68 -85.333 -159 -128 -273 -128c-91.333 0 -163.666 29.667 -216.999 89s-80 135.666 -80 228.999
c0 113.333 32.333 209.666 97 288.999c68 84 158 126 270 126zM345.999 105.003c56 0 100.667 35.998 134 107.998c25.333 56.667 38 118.334 38 185.001c0 52 -8.33301 96.667 -25 134c-22 49.333 -56.667 74 -104 74c-58 0 -103 -36.667 -135 -110
c-23.333 -54.667 -35 -117 -35 -187c0 -53.333 8.33301 -97.666 25 -132.999c21.333 -47.333 55.333 -71 102 -71z" />
    <glyph glyph-name="Oslash" unicode="&#xd8;" horiz-adv-x="696" 
d="M79 125c-28.667 49.333 -43.002 107.333 -43.002 174c0 116 31.333 213.667 94 293c68 85.333 158.667 128 272 128c82.667 0 152.334 -25.333 209.001 -76l64 62h108l-124 -121c29.333 -58.667 44 -118.667 44 -180c0 -114 -31.667 -210.667 -95 -290
c-68.667 -84.667 -158.667 -127 -270 -127c-46 0 -84.667 5.5 -116 16.5s-63.666 31.167 -96.999 60.5l-65 -65h-109zM495.998 531c-29.333 48.667 -64 73 -104 73c-58 0 -103 -36 -135 -108c-11.333 -26.667 -20.333 -56 -27 -88s-10 -64.667 -10 -98l1 -22v-23z
M257.998 153c20.667 -32.667 50.667 -49 90 -49c60 0 105.333 38.333 136 115c23.333 58 35 122 35 192l-2 36l-276 -268c4 -10 9.66699 -18.667 17 -26z" />
    <glyph glyph-name="Ugrave" unicode="&#xd9;" horiz-adv-x="675" 
d="M318 903l136 -129h-124l-203 129h191zM52 706l294 -0.00195312l-9 -71h-4c-29.333 0 -49 -20 -59 -60l-10 -95c-2 -19.333 -4 -37.5 -6 -54.5s-4.66699 -36.833 -8 -59.5c-5.33301 -46.667 -8 -84.667 -8 -114c0 -37.333 11 -68 33 -92c22.667 -22.667 53 -34 91 -34
c55.333 0 95.333 21.333 120 64c8.66699 14 16 32 22 54s11.333 50 16 84c17.333 135.333 26 220.333 26 255c0 22 -5 36.333 -15 43s-26.667 10 -50 10l9 72h248l-7 -72c-21.333 0 -38 -8 -50 -24c-5.33301 -10 -10.666 -28.333 -15.999 -55l-28 -254
c-1.33301 -11.333 -2.33301 -21 -3 -29c-2.66699 -19.333 -6.33398 -42.666 -11.001 -69.999c-30 -144 -134 -216 -312 -216c-76.667 0 -137.667 19.333 -183 58c-49.333 41.333 -74 99.333 -74 174c0 20 1.33301 45.667 4 77s7 67.333 13 108
c11.333 84.667 17 146.334 17 185.001c0 30.667 -16 46 -48 46z" />
    <glyph glyph-name="Uacute" unicode="&#xda;" horiz-adv-x="675" 
d="M470 905h194l-212 -130h-122zM52 706l294 -0.00195312l-9 -71h-4c-29.333 0 -49 -20 -59 -60l-10 -95c-2 -19.333 -4 -37.5 -6 -54.5s-4.66699 -36.833 -8 -59.5c-5.33301 -46.667 -8 -84.667 -8 -114c0 -37.333 11 -68 33 -92c22.667 -22.667 53 -34 91 -34
c55.333 0 95.333 21.333 120 64c8.66699 14 16 32 22 54s11.333 50 16 84c17.333 135.333 26 220.333 26 255c0 22 -5 36.333 -15 43s-26.667 10 -50 10l9 72h248l-7 -72c-21.333 0 -38 -8 -50 -24c-5.33301 -10 -10.666 -28.333 -15.999 -55l-28 -254
c-1.33301 -11.333 -2.33301 -21 -3 -29c-2.66699 -19.333 -6.33398 -42.666 -11.001 -69.999c-30 -144 -134 -216 -312 -216c-76.667 0 -137.667 19.333 -183 58c-49.333 41.333 -74 99.333 -74 174c0 20 1.33301 45.667 4 77s7 67.333 13 108
c11.333 84.667 17 146.334 17 185.001c0 30.667 -16 46 -48 46z" />
    <glyph glyph-name="Ucircumflex" unicode="&#xdb;" horiz-adv-x="675" 
d="M339 925h143c17.333 -20 53.333 -70 108 -150h-134l-51 92l-69 -92l-136 1l54 61zM52 706l294 -0.00195312l-9 -71h-4c-29.333 0 -49 -20 -59 -60l-10 -95c-2 -19.333 -4 -37.5 -6 -54.5s-4.66699 -36.833 -8 -59.5c-5.33301 -46.667 -8 -84.667 -8 -114
c0 -37.333 11 -68 33 -92c22.667 -22.667 53 -34 91 -34c55.333 0 95.333 21.333 120 64c8.66699 14 16 32 22 54s11.333 50 16 84c17.333 135.333 26 220.333 26 255c0 22 -5 36.333 -15 43s-26.667 10 -50 10l9 72h248l-7 -72c-21.333 0 -38 -8 -50 -24
c-5.33301 -10 -10.666 -28.333 -15.999 -55l-28 -254c-1.33301 -11.333 -2.33301 -21 -3 -29c-2.66699 -19.333 -6.33398 -42.666 -11.001 -69.999c-30 -144 -134 -216 -312 -216c-76.667 0 -137.667 19.333 -183 58c-49.333 41.333 -74 99.333 -74 174
c0 20 1.33301 45.667 4 77s7 67.333 13 108c11.333 84.667 17 146.334 17 185.001c0 30.667 -16 46 -48 46z" />
    <glyph glyph-name="Udieresis" unicode="&#xdc;" horiz-adv-x="675" 
d="M252 894h135l-13 -118h-136zM512 894h134l-12 -118h-136zM52 706h293.996l-9 -71l-4 1h-4c-13.333 0 -27 -8 -41 -24c-8 -10 -17.667 -65.833 -29 -167.5s-17 -165.167 -17 -190.5c0 -39.333 10.667 -70.666 32 -93.999c22.667 -22.667 53.334 -34 92.001 -34
c64.667 0 109.334 30.667 134.001 92c8.66699 23.333 19.167 84.166 31.5 182.499s18.5 158.5 18.5 180.5s-5.33301 37.333 -16 46c-9.33301 6 -25.666 9 -48.999 9l8 72h249l-7 -72c-24 0 -41.333 -8.33301 -52 -25c-2 -4.66699 -4.16699 -11.334 -6.5 -20.001
s-4.83301 -21.667 -7.5 -39l-27 -241c-4 -40.667 -9.33301 -75 -16 -103c-14.667 -71.333 -50 -127 -106 -167c-51.333 -35.333 -115.333 -53 -192 -53c-79.333 0 -142.666 18 -189.999 54c-52.667 40.667 -79 99.334 -79 176.001c0 43.333 5.5 106 16.5 188
s16.5 142 16.5 180c0 33.333 -16 50 -48 50z" />
    <glyph glyph-name="germandbls" unicode="&#xdf;" horiz-adv-x="675" 
d="M-124 -176l3.99805 -0.000976562c78 0 132 72.333 162 217c10.667 57.333 18.334 110.5 23.001 159.5s7 99.5 7 151.5c0 8.66699 1 25 3 49s4.66699 52.667 8 86h-61l10 89h62c37.333 143.333 138 215 302 215c66 0 125 -15.667 177 -47
c62 -37.333 93 -86.666 93 -147.999c0 -41.333 -10.667 -74.666 -32 -99.999c-18 -20 -48 -38 -90 -54l-41 -20l-1 -5c0 -4 1 -7 3 -9c4.66699 -5.33301 23.667 -18 57 -38c72.667 -40.667 109 -95.334 109 -164.001c0 -66 -24.333 -119.333 -73 -160
c-46 -38.667 -102.333 -58 -169 -58l-49 6l-49 5c-2.66699 -0.666992 -5.5 -1.66699 -8.5 -3s-7.83301 -4 -14.5 -8h-62l20 190h64c0 -22 7.5 -39.833 22.5 -53.5s33.833 -20.5 56.5 -20.5c25.333 0 47 10 65 30c15.333 18.667 23 41.334 23 68.001
c0 36 -15.667 67.667 -47 95l-86 62c-31.333 23.333 -47 48.333 -47 75c0 12 4.66699 21.667 14 29c4 4 14.333 8 31 12c40.667 10 69 20 85 30c24 17.333 36 44.333 36 81c0 27.333 -9.83301 49.666 -29.5 66.999s-43.5 26 -71.5 26c-50.667 0 -86.667 -28 -108 -84
c-10 -29.333 -18 -79 -24 -149l-12 -157c0 -49.333 -3.33301 -100 -10 -152c-3.33301 -26.667 -9.66602 -64.667 -18.999 -114c-20.667 -121.333 -50 -201 -88 -239c-19.333 -19.333 -54 -29 -104 -29h-147z" />
    <glyph glyph-name="agrave" unicode="&#xe0;" 
d="M252 793l135 -130h-123l-205 130h193zM77 418l22 184h65c6 -9.33301 16.667 -14 32 -14c16.667 0 39 2.33301 67 7l66 7c146.667 0 220 -57.667 220 -173c0 -17.333 -1 -37 -3 -59s-5.66699 -50 -11 -84c-9.33301 -65.333 -14 -113.333 -14 -144c0 -46 18 -71 54 -75
l-8 -67h-198c-2.66699 26.667 -4 52.334 -4 77.001c-18 -28.667 -42.667 -50.834 -74 -66.501s-64 -23.5 -98 -23.5c-52.667 0 -96.667 15.833 -132 47.5s-53 73.5 -53 125.5c0 39.333 13 75 39 107s69.333 56 130 72l140 28c44 12 66 32 66 60c0 41.333 -34.333 62 -103 62
c-74 0 -119.333 -23.667 -136 -71h-67zM188 169c0 -17.333 6.16602 -32.498 18.499 -45.498s27.5 -19.5 45.5 -19.5c36.667 0 66 21.333 88 64c16.667 35.333 25 73.666 25 114.999c-10 -6 -33.167 -13.333 -69.5 -22s-61.166 -17.334 -74.499 -26.001
c-22 -14 -33 -36 -33 -66z" />
    <glyph glyph-name="aacute" unicode="&#xe1;" 
d="M404 794h193l-212 -130h-122zM77 418l22 184h65c6 -9.33301 16.667 -14 32 -14c16.667 0 39 2.33301 67 7l66 7c146.667 0 220 -57.667 220 -173c0 -17.333 -1 -37 -3 -59s-5.66699 -50 -11 -84c-9.33301 -65.333 -14 -113.333 -14 -144c0 -46 18 -71 54 -75l-8 -67h-198
c-2.66699 26.667 -4 52.334 -4 77.001c-18 -28.667 -42.667 -50.834 -74 -66.501s-64 -23.5 -98 -23.5c-52.667 0 -96.667 15.833 -132 47.5s-53 73.5 -53 125.5c0 39.333 13 75 39 107s69.333 56 130 72l140 28c44 12 66 32 66 60c0 41.333 -34.333 62 -103 62
c-74 0 -119.333 -23.667 -136 -71h-67zM188 169c0 -17.333 6.16602 -32.498 18.499 -45.498s27.5 -19.5 45.5 -19.5c36.667 0 66 21.333 88 64c16.667 35.333 25 73.666 25 114.999c-10 -6 -33.167 -13.333 -69.5 -22s-61.166 -17.334 -74.499 -26.001
c-22 -14 -33 -36 -33 -66z" />
    <glyph glyph-name="acircumflex" unicode="&#xe2;" 
d="M273 814l142 -1.00098c25.333 -32 61.333 -82 108 -150h-134l-50 93l-70 -93l-136 -1c16 15.333 39 40.333 69 75s53.667 60.334 71 77.001zM77 417.999l22 184h65c6 -9.33301 16.667 -14 32 -14c16.667 0 39 2.33301 67 7l66 7c146.667 0 220 -57.667 220 -173
c0 -17.333 -1 -37 -3 -59s-5.66699 -50 -11 -84c-9.33301 -65.333 -14 -113.333 -14 -144c0 -46 18 -71 54 -75l-8 -67h-198c-2.66699 26.667 -4 52.334 -4 77.001c-18 -28.667 -42.667 -50.834 -74 -66.501s-64 -23.5 -98 -23.5c-52.667 0 -96.667 15.833 -132 47.5
s-53 73.5 -53 125.5c0 39.333 13 75 39 107s69.333 56 130 72l140 28c44 12 66 32 66 60c0 41.333 -34.333 62 -103 62c-74 0 -119.333 -23.667 -136 -71h-67zM188 168.999c0 -17.333 6.16602 -32.498 18.499 -45.498s27.5 -19.5 45.5 -19.5c36.667 0 66 21.333 88 64
c16.667 35.333 25 73.666 25 114.999c-10 -6 -33.167 -13.333 -69.5 -22s-61.166 -17.334 -74.499 -26.001c-22 -14 -33 -36 -33 -66z" />
    <glyph glyph-name="atilde" unicode="&#xe3;" 
d="M140 760c22.667 17.333 53.667 26 93 26c9.33301 0 21.833 -1.33301 37.5 -4s33.167 -7 52.5 -13c42.667 -10.667 73 -16 91 -16s34 11 48 33h63l-30 -93c-30 -20.667 -63 -31 -99 -31c-19.333 0 -49 5.16699 -89 15.5s-68.667 15.5 -86 15.5
c-16 0 -32.333 -9.66699 -49 -29h-66zM77 418l22 184h65c6 -9.33301 16.667 -14 32 -14c16.667 0 39 2.33301 67 7l66 7c146.667 0 220 -57.667 220 -173c0 -17.333 -1 -37 -3 -59s-5.66699 -50 -11 -84c-9.33301 -65.333 -14 -113.333 -14 -144c0 -46 18 -71 54 -75l-8 -67
h-198c-2.66699 26.667 -4 52.334 -4 77.001c-18 -28.667 -42.667 -50.834 -74 -66.501s-64 -23.5 -98 -23.5c-52.667 0 -96.667 15.833 -132 47.5s-53 73.5 -53 125.5c0 39.333 13 75 39 107s69.333 56 130 72l140 28c44 12 66 32 66 60c0 41.333 -34.333 62 -103 62
c-74 0 -119.333 -23.667 -136 -71h-67zM188 169c0 -17.333 6.16602 -32.498 18.499 -45.498s27.5 -19.5 45.5 -19.5c36.667 0 66 21.333 88 64c16.667 35.333 25 73.666 25 114.999c-10 -6 -33.167 -13.333 -69.5 -22s-61.166 -17.334 -74.499 -26.001
c-22 -14 -33 -36 -33 -66z" />
    <glyph glyph-name="adieresis" unicode="&#xe4;" 
d="M167 780h135l-14 -119h-135zM383 780h136l-14 -120h-135zM77 418l22 184h65c6 -9.33301 16.667 -14 32 -14c16.667 0 39 2.33301 67 7l66 7c146.667 0 220 -57.667 220 -173c0 -17.333 -1 -37 -3 -59s-5.66699 -50 -11 -84c-9.33301 -65.333 -14 -113.333 -14 -144
c0 -46 18 -71 54 -75l-8 -67h-198c-2.66699 26.667 -4 52.334 -4 77.001c-18 -28.667 -42.667 -50.834 -74 -66.501s-64 -23.5 -98 -23.5c-52.667 0 -96.667 15.833 -132 47.5s-53 73.5 -53 125.5c0 39.333 13 75 39 107s69.333 56 130 72l140 28c44 12 66 32 66 60
c0 41.333 -34.333 62 -103 62c-74 0 -119.333 -23.667 -136 -71h-67zM188 169c0 -17.333 6.16602 -32.498 18.499 -45.498s27.5 -19.5 45.5 -19.5c36.667 0 66 21.333 88 64c16.667 35.333 25 73.666 25 114.999c-10 -6 -33.167 -13.333 -69.5 -22
s-61.166 -17.334 -74.499 -26.001c-22 -14 -33 -36 -33 -66z" />
    <glyph glyph-name="aring" unicode="&#xe5;" 
d="M344 852c28 0 50.834 -8.16797 68.501 -24.501s26.5 -39.166 26.5 -68.499c0 -26 -10.333 -49 -31 -69c-20.667 -18.667 -44.334 -28 -71.001 -28c-29.333 0 -53 9 -71 27c-16.667 18.667 -25 43 -25 73c0 23.333 11 45 33 65c20.667 16.667 44 25 70 25z
M342.001 715.999c9.33301 0 18.667 5 28 15c8 10 12 20.667 12 32c0 24 -13.667 36 -41 36c-30 0 -45 -17.333 -45 -52c0 -20.667 15.333 -31 46 -31zM76.002 417.999l22 184h65c6 -9.33301 16.667 -14 32 -14c16.667 0 39 2.33301 67 7l66 7
c146.667 0 220 -57.667 220 -173c0 -17.333 -1 -37 -3 -59s-5.66699 -50 -11 -84c-9.33301 -65.333 -14 -113.333 -14 -144c0 -46 18 -71 54 -75l-8 -67h-198c-2.66699 26.667 -4 52.334 -4 77.001c-18 -28.667 -42.667 -50.834 -74 -66.501s-64 -23.5 -98 -23.5
c-52.667 0 -96.667 15.833 -132 47.5s-53 73.5 -53 125.5c0 39.333 13 75 39 107s69.333 56 130 72l140 28c44 12 66 32 66 60c0 41.333 -34.333 62 -103 62c-74 0 -119.333 -23.667 -136 -71h-67zM187.002 168.999c0 -17.333 6.16602 -32.498 18.499 -45.498
s27.5 -19.5 45.5 -19.5c36.667 0 66 21.333 88 64c16.667 35.333 25 73.666 25 114.999c-10 -6 -33.167 -13.333 -69.5 -22s-61.166 -17.334 -74.499 -26.001c-22 -14 -33 -36 -33 -66z" />
    <glyph glyph-name="ae" unicode="&#xe6;" horiz-adv-x="901" 
d="M70 416l20.002 187.001h69c6 -11.333 17.667 -17 35 -17c13.333 0 26.166 1 38.499 3s22.166 3.66699 29.499 5c30 6 52.667 9 68 9c78.667 0 135 -18 169 -54c51.333 36 109 54 173 54c74.667 0 132.334 -22.667 173.001 -68s61 -106 61 -182c0 -12 -3 -36 -9 -72h-367
v-16l-1 -17c0 -44.667 13 -80.834 39 -108.501s62 -41.5 108 -41.5c33.333 0 60.833 6.5 82.5 19.5s42.5 35.167 62.5 66.5h72l-31 -153c-22 -14 -52 -24.833 -90 -32.5s-82.333 -11.5 -133 -11.5c-47.333 0 -94 9 -140 27c-54 21.333 -89 51 -105 89
c-30.667 -40 -60 -68.333 -88 -85c-34 -20.667 -73 -31 -117 -31c-53.333 0 -98 14.667 -134 44s-54 70.666 -54 123.999c0 28.667 6.66699 55.334 20 80.001c25.333 47.333 69.666 80.333 132.999 99l153 30c48.667 10 73 30 73 60c0 42 -32.667 63 -98 63
c-36 0 -65.5 -4.5 -88.5 -13.5s-41.833 -28.167 -56.5 -57.5h-67zM736.002 375.001l1 8v9c0 65.333 -26 98 -78 98c-28 0 -53.333 -12.333 -76 -37c-18.667 -20.667 -32 -46.667 -40 -78h193zM182.002 166.001c0 -18 5.66699 -33.667 17 -47s26.333 -20 45 -20
c36.667 0 66.667 20 90 60c18.667 34 28 71 28 111v9l-113 -31c-44.667 -18 -67 -45.333 -67 -82z" />
    <glyph glyph-name="ccedilla" unicode="&#xe7;" horiz-adv-x="512" 
d="M544 603l-19.999 -185.998h-69c0 48.667 -27 73 -81 73c-51.333 0 -91.666 -26.667 -120.999 -80c-25.333 -44.667 -38 -94.334 -38 -149.001c0 -42 10 -78.667 30 -110c23.333 -34.667 55.666 -52 96.999 -52c24 0 46.333 8.16699 67 24.5s35 36.833 43 61.5h68
l-40 -176c-40.667 -14.667 -92.334 -22 -155.001 -22l-31 -38h5c28 0 52 -7 72 -21c22.667 -16.667 34 -38 34 -64c0 -36.667 -18.333 -66 -55 -88c-31.333 -18 -67 -27 -107 -27c-30 0 -76 12 -138 36l45 57c14 -5.33301 26.167 -9.33301 36.5 -12s20.166 -4 29.499 -4
c31.333 0 47 12 47 36c0 13.333 -11.333 20 -34 20l-24 -3l-26 40l31 39l31 38c-67.333 12.667 -119.166 41.667 -155.499 87s-54.5 103.333 -54.5 174c0 93.333 30.667 174.166 92 242.499s138 102.5 230 102.5c5.33301 0 12.333 -0.333008 21 -1s18.667 -2 30 -4l51 -4
c11.333 0 20.333 3.33301 27 10h62z" />
    <glyph glyph-name="egrave" unicode="&#xe8;" 
d="M252 793l135 -130h-123l-205 130h193zM207 281l0.00292969 -15.001l-1 -14c0 -46 13.667 -83.167 41 -111.5s63.666 -42.5 108.999 -42.5c25.333 0 53.666 8 84.999 24c36.667 18.667 55 39.667 55 63h73l-32 -155c-32.667 -14 -66.834 -24.667 -102.501 -32
s-73.167 -11 -112.5 -11c-87.333 0 -157.333 22.333 -210 67c-55.333 48 -83 115.333 -83 202c0 91.333 29 171 87 239c61.333 70.667 137.333 106 228 106c76 0 134.667 -20.167 176 -60.5s62 -99.166 62 -176.499c0 -16.667 -1 -32.5 -3 -47.5s-3.66699 -26.833 -5 -35.5
h-367zM413.003 374.999l2 29c0 24.667 -6.66699 45 -20 61c-12 17.333 -30 26 -54 26c-30 0 -56.667 -12 -80 -36c-19.333 -20 -33 -46.667 -41 -80h193z" />
    <glyph glyph-name="eacute" unicode="&#xe9;" 
d="M404 794h193l-212 -130h-122zM207 281l0.00292969 -15.001l-1 -14c0 -46 13.667 -83.167 41 -111.5s63.666 -42.5 108.999 -42.5c25.333 0 53.666 8 84.999 24c36.667 18.667 55 39.667 55 63h73l-32 -155c-32.667 -14 -66.834 -24.667 -102.501 -32
s-73.167 -11 -112.5 -11c-87.333 0 -157.333 22.333 -210 67c-55.333 48 -83 115.333 -83 202c0 91.333 29 171 87 239c61.333 70.667 137.333 106 228 106c76 0 134.667 -20.167 176 -60.5s62 -99.166 62 -176.499c0 -16.667 -1 -32.5 -3 -47.5s-3.66699 -26.833 -5 -35.5
h-367zM413.003 374.999l2 29c0 24.667 -6.66699 45 -20 61c-12 17.333 -30 26 -54 26c-30 0 -56.667 -12 -80 -36c-19.333 -20 -33 -46.667 -41 -80h193z" />
    <glyph glyph-name="ecircumflex" unicode="&#xea;" 
d="M273 814l142 -1.00098c25.333 -32 61.333 -82 108 -150h-134l-50 93l-70 -93l-136 -1c16 15.333 39 40.333 69 75s53.667 60.334 71 77.001zM207 280.999l0.00292969 -15.001l-1 -14c0 -46 13.667 -83.167 41 -111.5s63.666 -42.5 108.999 -42.5
c25.333 0 53.666 8 84.999 24c36.667 18.667 55 39.667 55 63h73l-32 -155c-32.667 -14 -66.834 -24.667 -102.501 -32s-73.167 -11 -112.5 -11c-87.333 0 -157.333 22.333 -210 67c-55.333 48 -83 115.333 -83 202c0 91.333 29 171 87 239
c61.333 70.667 137.333 106 228 106c76 0 134.667 -20.167 176 -60.5s62 -99.166 62 -176.499c0 -16.667 -1 -32.5 -3 -47.5s-3.66699 -26.833 -5 -35.5h-367zM413.003 374.998l2 29c0 24.667 -6.66699 45 -20 61c-12 17.333 -30 26 -54 26c-30 0 -56.667 -12 -80 -36
c-19.333 -20 -33 -46.667 -41 -80h193z" />
    <glyph glyph-name="edieresis" unicode="&#xeb;" 
d="M165 781h136l-16 -118h-134zM381 780h135l-14 -119h-134zM207 281l0.00292969 -15.001l-1 -14c0 -46 13.667 -83.167 41 -111.5s63.666 -42.5 108.999 -42.5c25.333 0 53.666 8 84.999 24c36.667 18.667 55 39.667 55 63h73l-32 -155
c-32.667 -14 -66.834 -24.667 -102.501 -32s-73.167 -11 -112.5 -11c-87.333 0 -157.333 22.333 -210 67c-55.333 48 -83 115.333 -83 202c0 91.333 29 171 87 239c61.333 70.667 137.333 106 228 106c76 0 134.667 -20.167 176 -60.5s62 -99.166 62 -176.499
c0 -16.667 -1 -32.5 -3 -47.5s-3.66699 -26.833 -5 -35.5h-367zM413.003 374.999l2 29c0 24.667 -6.66699 45 -20 61c-12 17.333 -30 26 -54 26c-30 0 -56.667 -12 -80 -36c-19.333 -20 -33 -46.667 -41 -80h193z" />
    <glyph glyph-name="igrave" unicode="&#xec;" horiz-adv-x="286" 
d="M115 793l135 -130h-123l-205 130h193zM5 67c20 0 35 5.99902 45 17.999c5.33301 8 10 23.667 14 47l13 118l16 114c6 46 9 84.333 9 115c0 30 -14.667 45 -44 45l7 65h219l-31 -279l-13 -100c-5.33301 -41.333 -8 -74.666 -8 -99.999c0 -29.333 12.667 -44 38 -44l9 1
l-8 -67h-272z" />
    <glyph glyph-name="iacute" unicode="&#xed;" horiz-adv-x="286" 
d="M267 794h193l-212 -130h-122zM5 67c20 0 35 5.99902 45 17.999c5.33301 8 10 23.667 14 47l13 118l16 114c6 46 9 84.333 9 115c0 30 -14.667 45 -44 45l7 65h219l-31 -279l-13 -100c-5.33301 -41.333 -8 -74.666 -8 -99.999c0 -29.333 12.667 -44 38 -44l9 1l-8 -67
h-272z" />
    <glyph glyph-name="icircumflex" unicode="&#xee;" horiz-adv-x="286" 
d="M136 814l142 -1.00098c8.66699 -7.33301 22.667 -24.666 42 -51.999l31.5 -44c11 -16 22.5 -34 34.5 -54h-134l-50 93l-70 -93h-136c54 52 100.667 102.333 140 151zM5 66.999c20 0 35 5.99902 45 17.999c5.33301 8 10 23.667 14 47l13 118l16 114c6 46 9 84.333 9 115
c0 30 -14.667 45 -44 45l7 65h219l-31 -279l-13 -100c-5.33301 -41.333 -8 -74.666 -8 -99.999c0 -29.333 12.667 -44 38 -44l9 1l-8 -67h-272z" />
    <glyph glyph-name="idieresis" unicode="&#xef;" horiz-adv-x="286" 
d="M28 781h136l-15 -118h-135zM245 780h135l-15 -119h-134zM5 67c20 0 35 5.99902 45 17.999c5.33301 8 10 23.667 14 47l13 118l16 114c6 46 9 84.333 9 115c0 30 -14.667 45 -44 45l7 65h219l-31 -279l-13 -100c-5.33301 -41.333 -8 -74.666 -8 -99.999
c0 -29.333 12.667 -44 38 -44l9 1l-8 -67h-272z" />
    <glyph glyph-name="ntilde" unicode="&#xf1;" horiz-adv-x="635" 
d="M170 760c28.667 17.333 58.9951 26 90.9951 26c22.667 0 53.334 -5.66699 92.001 -17c42.667 -10.667 73.334 -16 92.001 -16c15.333 0 31 11 47 33h64l-32 -93c-31.333 -20.667 -64.333 -31 -99 -31c-19.333 0 -48.666 5 -87.999 15
c-7.33301 2 -20.666 5.16699 -39.999 9.5s-34.666 6.5 -45.999 6.5c-19.333 0 -35.333 -9.66699 -48 -29h-67zM-3.00488 66c19.333 0 34.002 5.33301 44.002 16c7.33301 8 12.333 23.333 15 46l19 171l19 180c0 30 -14.667 45 -44 45l8 65h203l-7 -78l23 24
c48 44.667 101.667 67 161 67c48.667 0 89.167 -15.167 121.5 -45.5s48.5 -70.166 48.5 -119.499c0 -35.333 -5 -88.833 -15 -160.5s-15 -125.5 -15 -161.5c0 -32 15.333 -48 46 -48l-7 -67h-274l8 67h4c21.333 0 36.666 11 45.999 33c2 5.33301 5.66699 25.666 11 60.999
l14 115c7.33301 62.667 11 102 11 118c0 54 -22.667 81 -68 81c-49.333 0 -85 -30.333 -107 -91c-6.66699 -20.667 -15.334 -71.667 -26.001 -153l-10 -123c0 -27.333 15.333 -41 46 -41l-9 -67h-272z" />
    <glyph glyph-name="ograve" unicode="&#xf2;" horiz-adv-x="614" 
d="M271 793l135 -130h-122l-205 130h192zM353 602c81.333 0 145.833 -24.334 193.5 -73.001s71.5 -113.667 71.5 -195c0 -96 -29 -177 -87 -243c-60.667 -68.667 -138.667 -103 -234 -103c-86 0 -152.333 23.333 -199 70s-70 113.334 -70 200.001
c0 98 29.833 179.833 89.5 245.5s138.167 98.5 235.5 98.5zM306 100.999c44 0 78.667 30 104 90c18 45.333 27 95.333 27 150c0 38.667 -6.33301 71 -19 97c-16 33.333 -42 50 -78 50c-46 0 -81 -28.667 -105 -86c-18 -44 -27 -92.333 -27 -145c0 -104 32.667 -156 98 -156z
" />
    <glyph glyph-name="oacute" unicode="&#xf3;" horiz-adv-x="614" 
d="M423 794h194l-212 -130h-121zM352 602c81.333 0 145.999 -24.168 193.999 -72.501s72 -113.5 72 -195.5c0 -96 -29 -177 -87 -243c-60.667 -68.667 -138.667 -103 -234 -103c-86 0 -152.333 23.333 -199 70s-70 113.334 -70 200.001c0 98 29.833 179.833 89.5 245.5
s137.834 98.5 234.501 98.5zM305.999 100.999c44 0 78.667 30 104 90c18 45.333 27 95.333 27 150c0 38.667 -6.33301 71 -19 97c-16 33.333 -42 50 -78 50c-46 0 -81 -28.667 -105 -86c-18 -44 -27 -92.333 -27 -145c0 -104 32.667 -156 98 -156z" />
    <glyph glyph-name="ocircumflex" unicode="&#xf4;" horiz-adv-x="614" 
d="M293 814l140.001 -0.00292969c13.333 -11.333 31.666 -35.333 54.999 -72c26 -41.333 44.333 -67.666 55 -78.999h-134l-51 93l-69 -93h-136c16.667 14.667 40.167 39.834 70.5 75.501s53.5 60.834 69.5 75.501zM353.001 601.997c81.333 0 145.833 -24.334 193.5 -73.001
s71.5 -113.667 71.5 -195c0 -96 -29 -177 -87 -243c-60.667 -68.667 -138.667 -103 -234 -103c-86 0 -152.333 23.333 -199 70s-70 113.334 -70 200.001c0 98 29.833 179.833 89.5 245.5s138.167 98.5 235.5 98.5zM306.001 100.996c44 0 78.667 30 104 90
c18 45.333 27 95.333 27 150c0 38.667 -6.33301 71 -19 97c-16 33.333 -42 50 -78 50c-46 0 -81 -28.667 -105 -86c-18 -44 -27 -92.333 -27 -145c0 -104 32.667 -156 98 -156z" />
    <glyph glyph-name="otilde" unicode="&#xf5;" horiz-adv-x="614" 
d="M160 760c22.667 17.333 52.9971 26 90.9971 26c9.33301 0 21.833 -1.33301 37.5 -4s33.5 -7 53.5 -13c42.667 -10.667 73.667 -16 93 -16c12 0 21.333 3.66699 28 11l19 22h64l-32 -93c-39.333 -20.667 -72 -31 -98 -31c-19.333 0 -48.666 5 -87.999 15
c-7.33301 2 -20.666 5.16699 -39.999 9.5s-34.666 6.5 -45.999 6.5c-20 0 -36.667 -9.66699 -50 -29h-67zM352.997 602c81.333 0 145.833 -24.334 193.5 -73.001s71.5 -113.667 71.5 -195c0 -96 -29 -177 -87 -243c-60.667 -68.667 -138.667 -103 -234 -103
c-86 0 -152.333 23.333 -199 70s-70 113.334 -70 200.001c0 98 29.833 179.833 89.5 245.5s138.167 98.5 235.5 98.5zM305.997 100.999c44 0 78.667 30 104 90c18 45.333 27 95.333 27 150c0 38.667 -6.33301 71 -19 97c-16 33.333 -42 50 -78 50
c-46 0 -81 -28.667 -105 -86c-18 -44 -27 -92.333 -27 -145c0 -104 32.667 -156 98 -156z" />
    <glyph glyph-name="odieresis" unicode="&#xf6;" horiz-adv-x="614" 
d="M204 781h134l-13 -119h-135zM420 781h134l-13 -119h-135zM352 602c81.333 0 145.999 -24.168 193.999 -72.501s72 -113.5 72 -195.5c0 -96 -29 -177 -87 -243c-60.667 -68.667 -138.667 -103 -234 -103c-86 0 -152.333 23.333 -199 70s-70 113.334 -70 200.001
c0 98 29.833 179.833 89.5 245.5s137.834 98.5 234.501 98.5zM305.999 100.999c44 0 78.667 30 104 90c18 45.333 27 95.333 27 150c0 38.667 -6.33301 71 -19 97c-16 33.333 -42 50 -78 50c-46 0 -81 -28.667 -105 -86c-18 -44 -27 -92.333 -27 -145
c0 -104 32.667 -156 98 -156z" />
    <glyph glyph-name="divide" unicode="&#xf7;" horiz-adv-x="522" 
d="M-3 279h505v-52h-505v52zM244 438c14 0 26.5 -5.33105 37.5 -15.998s16.5 -23.334 16.5 -38.001c0 -14 -5.33301 -26.5 -16 -37.5s-23.334 -16.5 -38.001 -16.5c-14 0 -26.333 5.16699 -37 15.5s-16 23.166 -16 38.499c0 13.333 5 26 15 38
c10.667 10.667 23.334 16 38.001 16zM244 176.002c14 0 26.5 -5.33105 37.5 -15.998s16.5 -23.334 16.5 -38.001c0 -14 -5.33301 -26.5 -16 -37.5s-23.334 -16.5 -38.001 -16.5c-14 0 -26.333 5.16699 -37 15.5s-16 23.166 -16 38.499c0 13.333 5 26 15 38
c10.667 10.667 23.334 16 38.001 16z" />
    <glyph glyph-name="oslash" unicode="&#xf8;" horiz-adv-x="614" 
d="M65 105c-24.667 49.333 -36.998 102 -36.998 158c0 96 30.667 176.667 92 242s139.666 98 234.999 98c75.333 0 134.666 -20 177.999 -60l52 49h107l-113 -104c26 -47.333 39 -101.333 39 -162c0 -92.667 -29.667 -172.167 -89 -238.5s-135 -99.5 -227 -99.5
c-41.333 0 -75.5 4 -102.5 12s-56.833 23.667 -89.5 47l-50 -47h-107zM421.002 438c-4 14 -14.168 26.166 -30.501 36.499s-32.166 15.5 -47.499 15.5c-47.333 0 -83.333 -26.333 -108 -79c-10 -21.333 -17.333 -43.166 -22 -65.499s-7 -47.833 -7 -76.5v-33
c18 14.667 89.667 82 215 202zM309.001 100.999c44 0 78 26 102 78c18.667 42.667 28 88.667 28 138v20l-1 19l-213 -202c15.333 -35.333 43.333 -53 84 -53z" />
    <glyph glyph-name="ugrave" unicode="&#xf9;" horiz-adv-x="635" 
d="M282 793l135 -130h-123l-204 130h192zM51 590l220.998 -0.000976562l-27 -193c-10 -77.333 -15 -142.333 -15 -195c0 -60 24 -90 72 -90c52.667 0 90 36.333 112 109c4.66699 17.333 13.334 75.666 26.001 174.999l8 75c0 16.667 -2.5 28.834 -7.5 36.501
s-17.167 13.167 -36.5 16.5l7 65h221l-34 -289c-11.333 -98.667 -17 -155.667 -17 -171c0 -40 14.667 -61.333 44 -64l-7 -65l-193 1l-2 38v22c0 6 1.33301 15.667 4 29c-51.333 -68 -115.666 -102 -192.999 -102c-54 0 -97 14.5 -129 43.5s-48 70.5 -48 124.5
c0 36.667 5.16699 92.834 15.5 168.501s15.5 129.5 15.5 161.5c0 14 -4 24 -12 30l-32 8z" />
    <glyph glyph-name="uacute" unicode="&#xfa;" horiz-adv-x="635" 
d="M433 794h193l-210 -130h-123zM51 590l220.998 -0.000976562l-27 -193c-10 -77.333 -15 -142.333 -15 -195c0 -60 24 -90 72 -90c52.667 0 90 36.333 112 109c4.66699 17.333 13.334 75.666 26.001 174.999l8 75c0 16.667 -2.5 28.834 -7.5 36.501
s-17.167 13.167 -36.5 16.5l7 65h221l-34 -289c-11.333 -98.667 -17 -155.667 -17 -171c0 -40 14.667 -61.333 44 -64l-7 -65l-193 1l-2 38v22c0 6 1.33301 15.667 4 29c-51.333 -68 -115.666 -102 -192.999 -102c-54 0 -97 14.5 -129 43.5s-48 70.5 -48 124.5
c0 36.667 5.16699 92.834 15.5 168.501s15.5 129.5 15.5 161.5c0 14 -4 24 -12 30l-32 8z" />
    <glyph glyph-name="ucircumflex" unicode="&#xfb;" horiz-adv-x="635" 
d="M304 814l141 1l49 -68c12 -15.333 31.333 -43.333 58 -84h-133l-50 93l-70 -93l-135 1c4 7.33301 17.5 23.5 40.5 48.5s56.167 58.833 99.5 101.5zM51 590l220.998 -0.000976562l-27 -193c-10 -77.333 -15 -142.333 -15 -195c0 -60 24 -90 72 -90
c52.667 0 90 36.333 112 109c4.66699 17.333 13.334 75.666 26.001 174.999l8 75c0 16.667 -2.5 28.834 -7.5 36.501s-17.167 13.167 -36.5 16.5l7 65h221l-34 -289c-11.333 -98.667 -17 -155.667 -17 -171c0 -40 14.667 -61.333 44 -64l-7 -65l-193 1l-2 38v22
c0 6 1.33301 15.667 4 29c-51.333 -68 -115.666 -102 -192.999 -102c-54 0 -97 14.5 -129 43.5s-48 70.5 -48 124.5c0 36.667 5.16699 92.834 15.5 168.501s15.5 129.5 15.5 161.5c0 14 -4 24 -12 30l-32 8z" />
    <glyph glyph-name="udieresis" unicode="&#xfc;" horiz-adv-x="635" 
d="M199 781h134l-13 -119h-134zM415 780h135l-13 -118h-135zM51 590l220.998 -0.000976562l-27 -193c-10 -77.333 -15 -142.333 -15 -195c0 -60 24 -90 72 -90c52.667 0 90 36.333 112 109c4.66699 17.333 13.334 75.666 26.001 174.999l8 75
c0 16.667 -2.5 28.834 -7.5 36.501s-17.167 13.167 -36.5 16.5l7 65h221l-34 -289c-11.333 -98.667 -17 -155.667 -17 -171c0 -40 14.667 -61.333 44 -64l-7 -65l-193 1l-2 38v22c0 6 1.33301 15.667 4 29c-51.333 -68 -115.666 -102 -192.999 -102
c-54 0 -97 14.5 -129 43.5s-48 70.5 -48 124.5c0 36.667 5.16699 92.834 15.5 168.501s15.5 129.5 15.5 161.5c0 14 -4 24 -12 30l-32 8z" />
    <glyph glyph-name="ydieresis" unicode="&#xff;" horiz-adv-x="614" 
d="M185 781h135l-14 -118h-135zM402 780h134l-13 -119h-136zM-18 -74l67.002 1.00098c0 -43.333 19.333 -65 58 -65c23.333 0 46.666 11 69.999 33c18 18 33.333 39.667 46 65l-102 384l-28 105c-17.333 49.333 -37 74 -59 74h-6l8 66h268l-9 -67h-4c-8 0 -15 -3 -21 -9
s-9 -13 -9 -21c0 -24.667 6.33301 -64.667 19 -120l51 -206l81 166c40.667 85.333 61 136.666 61 153.999c0 24.667 -12.333 37 -37 37l8 66h221l-8 -67c-22.667 0 -49 -26.333 -79 -79l-54 -109l-154 -307c-46.667 -94 -84.334 -157 -113.001 -189
c-53.333 -62 -116.333 -93 -189 -93c-15.333 0 -30.833 1.66699 -46.5 5s-34.5 9.33301 -56.5 18z" />
    <glyph glyph-name="c128" unicode="&#x112;" horiz-adv-x="522" 
d="M420 500l-73 -130h158v-53h-187l-75 -134h262v-52h-290l-87 -155l-47 27l71 128h-151v52h181l74 134h-255v53h285l87 157z" />
    <glyph glyph-name="c129" unicode="&#x113;" horiz-adv-x="677" 
d="M508 388c35.333 0 66.499 -13.168 93.499 -39.501s40.5 -57.5 40.5 -93.5s-12.667 -67.667 -38 -95s-55.333 -41 -90 -41c-37.333 0 -72 10.667 -104 32c-12.667 8 -41 31.667 -85 71c-42 -37.333 -70.333 -61 -85 -71c-32.667 -21.333 -67.667 -32 -105 -32
c-35.333 0 -65.666 14 -90.999 42s-38 59.667 -38 95c0 36.667 13.667 67.834 41 93.501s59 38.5 95 38.5c32 0 65 -11.667 99 -35c21.333 -13.333 49.333 -36 84 -68l36 32c18 15.333 34.5 28 49.5 38s31 18 48 24s33.5 9 49.5 9zM141.999 337.999
c-23.333 0 -43.5 -9.00098 -60.5 -27.001s-25.5 -38.667 -25.5 -62c0 -22.667 9 -42.667 27 -60c18 -16 39.333 -24 64 -24c26.667 0 53.667 9.66699 81 29c12.667 8.66699 34.667 28.334 66 59.001c-30 26 -53.333 44.667 -70 56c-30.667 19.333 -58 29 -82 29z
M504.999 165.998c24 0 45.001 8 63.001 24s27 35.667 27 59c0 24 -8.16699 44.833 -24.5 62.5s-36.833 26.5 -61.5 26.5c-36 0 -86.667 -28.333 -152 -85c30 -28.667 52 -48 66 -58c27.333 -19.333 54.666 -29 81.999 -29z" />
    <glyph glyph-name="c141" unicode="&#x114;" horiz-adv-x="581" 
d="M569 0h-578l307 660zM54 47h396l-187 449z" />
    <glyph glyph-name="c142" unicode="&#x115;" horiz-adv-x="469" 
d="M192 0l-187 362l187 353h57l186 -353l-186 -362h-57zM220 663l-157 -301l157 -310l158 310z" />
    <glyph glyph-name="mu1" unicode="&#x116;" horiz-adv-x="547" 
d="M127 480l-0.000976562 -319c0 -31.333 7.5 -57.5 22.5 -78.5s37.833 -31.5 68.5 -31.5c20 0 40.667 7.33301 62 22s36.666 31.667 45.999 51v356h82v-369c0 -18 4.33301 -35.833 13 -53.5s21.667 -26.5 39 -26.5c16.667 0 29 7.66699 37 23l14 44l19 -1
c-16 -75.333 -55 -113 -117 -113c-27.333 0 -48 9.33301 -62 28c-8 12 -15.667 34.333 -23 67c-44 -63.333 -94.667 -95 -152 -95c-19.333 0 -36.666 5.33301 -51.999 16l-45 31v-22c0 -17.333 5.16699 -43.5 15.5 -78.5s15.5 -60.167 15.5 -75.5
c0 -16.667 -3.66699 -32.334 -11 -47.001s-18.666 -22 -33.999 -22s-27 7.16699 -35 21.5s-12 29.833 -12 46.5c0 17.333 4.5 43.333 13.5 78s13.5 60.334 13.5 77.001v471h82z" />
    <glyph glyph-name="c279" unicode="&#x117;" horiz-adv-x="348" 
d="M41 413h333l-13 -114h-334z" />
    <glyph glyph-name="c281" unicode="&#x119;" horiz-adv-x="723" 
d="M737 721l-22 -189.999h-73l1 4c0 22.667 -12 40.667 -36 54s-47.667 20 -71 20c-66.667 0 -119.667 -33 -159 -99c-33.333 -56.667 -50 -121 -50 -193c0 -60.667 13.667 -110 41 -148c30 -43.333 74.667 -65 134 -65c31.333 0 58.666 8.5 81.999 25.5
s39.333 40.5 48 70.5h72l-25 -176c-66 -24 -138 -36 -216 -36c-96 0 -174.333 29 -235 87s-91 135.333 -91 232c0 111.333 36.667 208.166 110 290.499s165 123.5 275 123.5c16 0 36 -2.33301 60 -7c26 -4 45 -6 57 -6c6.66699 0 15.334 4.33301 26.001 13h72zM48 373.001
l36 64h523l-36 -64h-523zM33 265.001l36 64h475l-36 -64h-475z" />
    <glyph glyph-name="dotlessi" unicode="&#x131;" horiz-adv-x="286" 
d="M5 67c20 0 35 5.99902 45 17.999c5.33301 8 10 23.667 14 47l13 118l16 114c6 46 9 84.333 9 115c0 30 -14.667 45 -44 45l7 65h219l-31 -279l-13 -100c-5.33301 -41.333 -8 -74.666 -8 -99.999c0 -29.333 12.667 -44 38 -44l9 1l-8 -67h-272z" />
    <glyph glyph-name="OE" unicode="&#x152;" horiz-adv-x="1023" 
d="M1022 538l-72 0.000976562v4c0 32 -36.667 48 -110 48h-122l-17 -156l76 1h76c20 0 35.333 2.16699 46 6.5s20 15.166 28 32.499h71l-22 -201h-72v6c0 30.667 -23.667 46 -71 46h-145l-24 -210h129c84 0 131.333 25.333 142 76h72l-22 -191h-404
c-14.667 0 -27 -0.333008 -37 -1c-49.333 -3.33301 -80.333 -5 -93 -5l-131 -7c-88 0 -158.667 28.333 -212 85s-80 129.667 -80 219c0 118 30.333 217.333 91 298c67.333 88 158.333 132 273 132c15.333 0 64.333 -4.33301 147 -13l29 -1l473 1zM527 530.001
c0 26 -13.667 46.001 -41 60.001c-12 5.33301 -23.833 9.33301 -35.5 12s-25.5 4 -41.5 4c-69.333 0 -122 -35 -158 -105c-26.667 -54.667 -40 -121 -40 -199c0 -133.333 51.667 -200 155 -200c48 0 81.333 11.667 100 35c14 17.333 24.667 51.666 32 102.999l19 145
c2.66699 23.333 5 48.833 7 76.5s3 50.5 3 68.5z" />
    <glyph glyph-name="oe" unicode="&#x153;" horiz-adv-x="962" 
d="M738 601c74 0 130.669 -21.667 170.002 -65c19.333 -20.667 34 -45.667 44 -75s15 -63 15 -101c0 -19.333 -3.33301 -46 -10 -80l-361 -1l-2 -36c0 -45.333 14.667 -80.666 44 -105.999s66.666 -38 111.999 -38c59.333 0 103 28 131 84h73l-32 -155
c-66 -28 -137.667 -42 -215 -42c-21.333 0 -40.333 1.33301 -57 4s-37.334 8 -62.001 16c-49.333 14.667 -82.666 34.667 -99.999 60c-33.333 -28 -65.5 -48.167 -96.5 -60.5s-67.167 -18.5 -108.5 -18.5c-81.333 0 -145.666 24.167 -192.999 72.5s-71 114.166 -71 197.499
c0 94.667 30.167 175.667 90.5 243s137.166 101 230.499 101c42.667 0 78.667 -5.5 108 -16.5s57.666 -31.167 84.999 -60.5c22 24 53.667 43.333 95 58c18 6 36 10.667 54 14s36.667 5 56 5zM200.002 239c0 -35.333 6.66699 -65.335 20 -90.002
c16.667 -32.667 40 -49 70 -49c44 0 78 30 102 90c9.33301 24.667 16.333 48.334 21 71.001s7 47.667 7 75c0 38.667 -5.66699 71.334 -17 98.001c-16 36 -40.667 54 -74 54c-45.333 0 -80 -31.667 -104 -95c-16.667 -48 -25 -99.333 -25 -154zM802.002 373.998l1 9v9v17
c0 24 -7.83301 43.333 -23.5 58s-35.5 22 -59.5 22c-28 0 -52.667 -12.667 -74 -38c-17.333 -20 -30 -45.667 -38 -77h194z" />
    <glyph glyph-name="Scaron" unicode="&#x160;" horiz-adv-x="730" 
d="M297 0h-283.001v156h15c4 -20 10.333 -34.833 19 -44.5s23 -14.5 43 -14.5h152l-2 26c-139.333 41.333 -209 128.333 -209 261c0 86 32.333 154.333 97 205c60.667 47.333 135 71 223 71c86.667 0 160 -24 220 -72c64 -51.333 96 -120 96 -206
c0 -131.333 -69.333 -217.333 -208 -258l-2 -27h153c34.667 0 55.334 19.667 62.001 59h15v-156h-284l16 146c90.667 38 136 118 136 240c0 72.667 -15.667 130 -47 172c-36 48 -88.667 72 -158 72s-122 -24 -158 -72c-32 -42 -48 -99.333 -48 -172
c0 -121.333 45.333 -201.333 136 -240z" />
    <glyph glyph-name="Ydieresis" unicode="&#x178;" horiz-adv-x="655" 
d="M217 891h134l-13 -118h-135zM477 890h134l-13 -118h-135zM52 706h300.003l-9 -71c-18.667 0 -28 -9.33301 -28 -28c0 -12 10 -44.667 30 -98l42 -104l64 106c31.333 53.333 47 87.333 47 102c0 6 -2.16699 11 -6.5 15s-9.83301 6 -16.5 6l7 72h246l-9 -71
c-34.667 0 -71.334 -26.667 -110.001 -80l-77 -122l-95 -151c-11.333 -92 -17 -147 -17 -165s4 -30 12 -36c3.33301 -2.66699 15.666 -6 36.999 -10l-8 -71h-295l8 71l3 -1c26.667 0 45 12.667 55 38c2.66699 8 7 32.667 13 74l12 96c-6.66699 12 -18.667 37.667 -36 77
l-58 145c-8.66699 21.333 -16.334 38.833 -23.001 52.5s-12.667 24.5 -18 32.5c-22 33.333 -46.333 50 -73 50h-6z" />
    <glyph glyph-name="florin" unicode="&#x192;" horiz-adv-x="522" 
d="M492 0h-477v53h477v-53zM492 333l-477 -221v60l416 191l-416 191v59l477 -220v-60z" />
    <glyph glyph-name="circumflex" unicode="&#x2c6;" horiz-adv-x="0" 
d="M-1 814h140.001c13.333 -11.333 31.666 -35.333 54.999 -72c26 -41.333 44.333 -67.666 55 -78.999h-135l-50 93l-69 -93h-136c45.333 55.333 92 105.666 140 150.999z" />
    <glyph glyph-name="caron" unicode="&#x2c7;" horiz-adv-x="0" 
d="M8 816l50 -92l71 90h135l-140 -150h-142l-108 152h134z" />
    <glyph glyph-name="tilde" unicode="&#x2dc;" horiz-adv-x="0" 
d="M-134 760c22.667 17.333 52.9971 26 90.9971 26c9.33301 0 21.833 -1.33301 37.5 -4s33.5 -7 53.5 -13c42.667 -10.667 73.667 -16 93 -16c12 0 21.333 3.66699 28 11l19 22h64l-33 -93c-32 -20.667 -64.667 -31 -98 -31c-19.333 0 -48.666 5 -87.999 15
c-7.33301 2 -20.666 5.16699 -39.999 9.5s-34.666 6.5 -45.999 6.5c-20 0 -36.333 -9.66699 -49 -29h-67z" />
    <glyph glyph-name="endash" unicode="&#x2013;" horiz-adv-x="553" 
d="M38 411h539l-12 -115h-541z" />
    <glyph glyph-name="emdash" unicode="&#x2014;" horiz-adv-x="635" 
d="M31 345h666v-104h-666v104z" />
    <glyph glyph-name="quoteleft" unicode="&#x2018;" horiz-adv-x="246" 
d="M163 706l69 0.000976562l-44 -145h73l-16 -144h-169l5 74c0 15.333 0.666992 27 2 35s4.66602 20.667 9.99902 38c3.33301 10 7.33301 20.667 12 32s11.334 24.666 20.001 39.999z" />
    <glyph glyph-name="quoteright" unicode="&#x2019;" horiz-adv-x="245" 
d="M96 706l169 1c0 -30 -5.66699 -78 -17 -144c-6 -20.667 -16.333 -45 -31 -73l-38 -70h-72l46 145h-73z" />
    <glyph glyph-name="quotesinglbase" unicode="&#x201a;" horiz-adv-x="246" 
d="M44 143h169l-15 -140l-74 -150h-69l45 147h-72z" />
    <glyph glyph-name="quotedblleft" unicode="&#x201c;" horiz-adv-x="470" 
d="M86 563l22 44l48 99h71l-46 -145h73l-16 -142h-169zM387 706l70.999 -0.000976562l-44 -145h73l-17 -143h-168l5 73c0 14.667 0.833008 27.334 2.5 38.001s4.83398 24.167 9.50098 40.5s14.667 38.5 30 66.5z" />
    <glyph glyph-name="quotedblright" unicode="&#x201d;" horiz-adv-x="470" 
d="M102 706l168.001 0.000976562l-5 -72c0 -16.667 -0.666992 -29.334 -2 -38.001s-4 -19.667 -8 -33c-2.66699 -12 -6.33398 -23.167 -11.001 -33.5s-11.667 -23.5 -21 -39.5l-38 -70h-72l45 144h-73zM334.001 706.001h167.002l-4 -71
c0 -13.333 -0.833008 -25.5 -2.5 -36.5s-4.83398 -24 -9.50098 -39s-15.334 -37.833 -32.001 -68.5l-39 -72h-70l45 145h-72z" />
    <glyph glyph-name="quotedblbase" unicode="&#x201e;" horiz-adv-x="470" 
d="M36 143l169.003 -0.000976562l-4 -71c0 -14 -0.833008 -26.333 -2.5 -37s-4.33398 -21.667 -8.00098 -33s-7.83398 -22.666 -12.501 -33.999s-11.334 -25 -20.001 -41l-39 -72h-72l45 145h-72zM267.003 141.999h169l-5 -70c0 -14.667 -0.666992 -25.834 -2 -33.501
s-4.66602 -19.167 -9.99902 -34.5c-2.66699 -9.33301 -6.83398 -20.666 -12.501 -33.999s-12.167 -27.333 -19.5 -42l-38 -73h-70l45 145h-72z" />
    <glyph glyph-name="dagger" unicode="&#x2020;" horiz-adv-x="532" 
d="M46 528l67 1c4.66699 -17.333 26.667 -29 66 -35l83 -5c-2 16.667 -4.16699 32.667 -6.5 48s-5.66602 33.333 -9.99902 54s-8.5 34.667 -12.5 42c-6 8.66699 -17.333 16 -34 22l8 66h247l-9 -67c-24 -6 -45.667 -29 -65 -69l-32 -96l86 7c44 6 67 15.333 69 28l3 4h66
l-19 -162l-65 -1c0 14.667 -22.333 25.667 -67 33l-85 7c3.33301 -16.667 19 -38 47 -64l-118 -582h-85l12 582l12 7c15.333 4 31.666 23 48.999 57l-90 -7c-44.667 -6 -68 -16.667 -70 -32h-65z" />
    <glyph glyph-name="daggerdbl" unicode="&#x2021;" horiz-adv-x="760" 
d="M774 581l-36 -61.002c-47.333 68 -120 102 -218 102c-60.667 0 -116.334 -17.667 -167.001 -53s-88 -81 -112 -137h445l-38 -63h-429l-8 -63h400l-38 -63h-356c10 -59.333 36.667 -106.166 80 -140.499s97.333 -51.5 162 -51.5c90.667 0 168 33 232 99l-10 -85
c-70.667 -51.333 -149 -77 -235 -77c-80 0 -147.667 23 -203 69s-87.666 108 -96.999 186h-113l38 63h71c0 16 0.5 27.333 1.5 34s3.16699 16.334 6.5 29.001h-101l38 63h83c28 77.333 75.5 138.833 142.5 184.5s142.167 68.5 225.5 68.5c48 0 93.667 -9.16699 137 -27.5
s76.333 -43.833 99 -76.5z" />
    <glyph glyph-name="bullet" unicode="&#x2022;" horiz-adv-x="333" 
d="M297 353c0 -36.667 -12.333 -67.5 -37 -92.5s-55 -37.5 -91 -37.5c-36.667 0 -68 12.667 -94 38s-39 56 -39 92c0 35.333 13.167 65.833 39.5 91.5s57.5 38.5 93.5 38.5c34.667 0 64.667 -12.833 90 -38.5s38 -56.167 38 -91.5z" />
    <glyph glyph-name="ellipsis" unicode="&#x2026;" horiz-adv-x="1000" 
d="M219 0h-104v106h104v-106zM552 0h-104v106h104v-106zM885 0h-104v106h104v-106z" />
    <glyph glyph-name="perthousand" unicode="&#x2030;" horiz-adv-x="260" 
d="M52 -103c-14 0 -27.335 6.33398 -40.002 19.001c-11.333 12.667 -17 26 -17 40c0 10 4.5 19.167 13.5 27.5s18.5 12.5 28.5 12.5c7.33301 0 16.833 -5 28.5 -15s19.167 -15 22.5 -15c17.333 0 26 31.333 26 94l-3 148l-3 150v220c0 201.333 33 302 99 302
c16 0 30.833 -5 44.5 -15s20.5 -23.333 20.5 -40c0 -12 -5.16699 -21.833 -15.5 -29.5s-21.166 -11.5 -32.499 -11.5c-9.33301 0 -18.166 3.33301 -26.499 10s-15.833 10.667 -22.5 12c-12 0 -18 -10 -18 -30c0 -33.333 3 -84.333 9 -153s9 -120.334 9 -155.001l1 -53v-53
c0 -250.667 -20.667 -397.667 -62 -441c-16 -16 -36.667 -24 -62 -24z" />
    <glyph glyph-name="guilsinglleft" unicode="&#x2039;" horiz-adv-x="333" 
d="M245 108l-157 123v92l157 123v-88l-105 -81l105 -81v-88z" />
    <glyph glyph-name="guilsinglright" unicode="&#x203a;" horiz-adv-x="333" 
d="M88 196l105 81l-105 81v88l157 -123v-92l-157 -123v88z" />
    <glyph glyph-name="uni20AC" unicode="&#x20ac;" horiz-adv-x="723" 
d="M33 265l36 64h69v26c2 8 3.33301 14 4 18h-94l36 64h73c25.333 82 70 149.333 134 202c68 54.667 145 82 231 82c16 0 36 -2.33301 60 -7c26 -4 45 -6 57 -6c6.66699 0 15.334 4.33301 26.001 13h72l-22 -190h-73l1 4c0 22.667 -12 40.667 -36 54s-47.667 20 -71 20
c-47.333 0 -88.333 -17.333 -123 -52c-29.333 -29.333 -52 -69.333 -68 -120h262l-36 -64h-240l-3 -44h216l-36 -64h-177c8 -48.667 25.333 -86.667 52 -114c30 -31.333 69.667 -47 119 -47c31.333 0 58.666 8.5 81.999 25.5s39.333 40.5 48 70.5h72l-25 -176
c-66 -24 -138 -36 -216 -36c-45.333 0 -86.333 6 -123 18s-70 30.667 -100 56c-58 50 -91.333 117.667 -100 203h-107z" />
    <glyph glyph-name="trademark" unicode="&#x2122;" horiz-adv-x="846" 
d="M302 646l2.99902 -93l-17 -1v8c0 28 -12 47 -36 57c-6 2 -16 3.83301 -30 5.5s-28.333 2.5 -43 2.5v-300c0 -17.333 16 -26 48 -26v-18h-154v18c32.667 0 49 8.66699 49 26l-1 300c-37.333 0 -62.666 -3.33301 -75.999 -10c-21.333 -9.33301 -32 -30.333 -32 -63l-18 1
l3 93h304zM442.999 646l126 -275.999l121 276h108v-17h-9c-25.333 0 -38 -8 -38 -24v-280c0 -17.333 16 -26 48 -26v-18h-154v18c32.667 0 49 8.66699 49 26v266l-128 -310h-18l-138 295v-251c0 -17.333 16.333 -26 49 -26v-18h-124v18c32.667 0 49 8.66699 49 26v270
c0 15.333 -5 25.666 -15 30.999c-4 2 -16 3 -36 3v17h110z" />
    <glyph glyph-name="fraction" unicode="&#x2215;" horiz-adv-x="103" 
d="M162 706l74 -1l-253 -705h-74z" />
    <glyph glyph-name="NULL" horiz-adv-x="0" 
 />
    <glyph glyph-name="nonmarkingreturn" horiz-adv-x="314" 
 />
    </font>
</defs>
</svg>
